<svg id="Capa_1" data-name="Capa 1" xmlns="http://www.w3.org/2000/svg" viewBox="0 0 304.16 303.39"><defs><style>.cls-1{fill:#353536;}.cls-2{fill:#f7e37c;}.cls-3{fill:#fff;}</style></defs><title>coronavirus</title><path class="cls-1" d="M233.68,231.76c-25.28,0-48.25-14.93-72.22-30.51l-3.76-2.45c-36-23.36-60.09-36.91-60.33-37l-.47-.27-.33-.44c-.18-.25-.31-.41-.4-.52a2.56,2.56,0,0,1,1.93-4.36h0c.4,0,3.26-.31,9.29-8.47l-2-2.79,18.32-13.62-5.8,9.56a49.67,49.67,0,0,1,10.5.2c9.13,1.11,16.66,4.38,20.43,8.83l10.11,2.17.43.23c8.69,4.82,14.08,6.53,16,5.07a8.27,8.27,0,0,0,2.68-9.75L136.18,45.78a16.62,16.62,0,0,1,21.61-21.73L157.34,23A16.63,16.63,0,0,1,188.1,10.31l.44,1.09a16.63,16.63,0,0,1,30.66.24l8.25,20.07A16.63,16.63,0,0,1,258.1,32l40.5,98.47a73.76,73.76,0,0,1-.32,56.95,72.19,72.19,0,0,1-39.53,39.34A65.86,65.86,0,0,1,233.68,231.76ZM103.16,159.31c7.83,4.52,28.84,16.87,57.26,35.3l3.77,2.44c30.51,19.84,59.33,38.58,92.68,25a67.25,67.25,0,0,0,36.8-36.65,68.75,68.75,0,0,0,.3-53.11L253.48,33.86A11.63,11.63,0,0,0,232,42.65l19.42,47.23-4.62,1.9L227.34,44.61a.19.19,0,0,0,0-.07l-12.75-31A11.63,11.63,0,0,0,193,22.34l32.2,78.29-4.62,1.9L188.44,24.29l0-.07-4.94-12A11.63,11.63,0,1,0,162,21.06l37.14,90.31-4.62,1.91L162.31,35a11.63,11.63,0,0,0-15.18-6.33,11.63,11.63,0,0,0-6.33,15.17l41.87,101.81a13.27,13.27,0,0,1-4.3,15.66c-5.42,4.08-15.59-1.46-21.21-4.57l-11.2-2.4-.56-.77c-4.68-6.44-20.64-9.54-31-7.2Q108.14,155.91,103.16,159.31Z"/><path class="cls-2" d="M114.1,112a38.09,38.09,0,0,0-55.78,43.22c.18.63.37,1.25.58,1.86a38.09,38.09,0,0,0,26.39,69.31l.09.37a38.08,38.08,0,0,0,47,26.4c.91-.25,1.8-.55,2.67-.86a38.09,38.09,0,0,0,66.79-33.61,38.09,38.09,0,0,0-19-73.75A38.09,38.09,0,1,0,114.1,112Z"/><path class="cls-1" d="M152.77,280.26a40.41,40.41,0,0,1-30.87-14.35l-1.15.34a40.57,40.57,0,0,1-49.53-26.47,40.59,40.59,0,0,1-27.51-73l-.06-.2a40.58,40.58,0,0,1,57.1-47.31,40.59,40.59,0,0,1,73.89,33.1,40.59,40.59,0,0,1,17.89,78.69,40.69,40.69,0,0,1-39.76,49.21ZM123.6,260l1.12,1.43a35.59,35.59,0,0,0,62.41-31.39l-.68-2.41,2.41-.68a35.59,35.59,0,0,0-17.78-68.9l-5.22,1.24,2.41-4.8a35.59,35.59,0,1,0-64.16-30.78l-1.14,2.5-2.38-1.38a35.59,35.59,0,0,0-52.12,40.39c.16.59.34,1.17.53,1.74l.61,1.8L48,169.84A35.59,35.59,0,0,0,72.69,234.6l2.19-.3.65,2.48a35.64,35.64,0,0,0,43.87,24.66c.76-.22,1.55-.47,2.49-.81Z"/><circle class="cls-2" cx="86.36" cy="44.05" r="19.1"/><path class="cls-1" d="M78.1,73.36a21.61,21.61,0,1,1,21.6-21.6A21.63,21.63,0,0,1,78.1,73.36Zm0-38.21A16.61,16.61,0,1,0,94.7,51.76,16.63,16.63,0,0,0,78.1,35.15Z"/><circle class="cls-2" cx="235.36" cy="258.45" r="9.55"/><path class="cls-1" d="M227.1,278.21a12.05,12.05,0,1,1,12.05-12A12.06,12.06,0,0,1,227.1,278.21Zm0-19.1a7,7,0,1,0,7.05,7.05A7.06,7.06,0,0,0,227.1,259.11Z"/><circle class="cls-2" cx="20.31" cy="98.96" r="9.55"/><path class="cls-1" d="M12.05,118.72a12,12,0,1,1,12.05-12A12.07,12.07,0,0,1,12.05,118.72Zm0-19.1a7,7,0,1,0,7.05,7A7.05,7.05,0,0,0,12.05,99.62Z"/><path class="cls-3" d="M172.38,173.58s0-11.48,0,0V136.74a14.17,14.17,0,0,0-14.17-14.17h0A14.17,14.17,0,0,0,144,136.74v-.1a14.16,14.16,0,0,0-14.17-14.17h0a14.16,14.16,0,0,0-14.17,14.17v10.1a14.17,14.17,0,0,0-14.18-14.17h0a14.17,14.17,0,0,0-14.17,14.17v13.7a14.18,14.18,0,0,0-14.17-14.18h0A14.18,14.18,0,0,0,59,160.44V230a70.87,70.87,0,0,0,70.87,70.87"/><path class="cls-1" d="M129.86,303.39A73.45,73.45,0,0,1,56.49,230V160.44a16.67,16.67,0,0,1,28.35-11.9v-1.8a16.67,16.67,0,0,1,28.43-11.81,16.67,16.67,0,0,1,30.79-7,16.67,16.67,0,0,1,30.82,8.82v36.84h-5V136.74a11.68,11.68,0,0,0-23.35,0v36.87h-5v-37a11.67,11.67,0,0,0-23.34,0v37h-5V146.74a11.68,11.68,0,0,0-23.35,0v26.87h-5V160.44a11.68,11.68,0,1,0-23.35,0V230a68.45,68.45,0,0,0,68.37,68.37Z"/><path class="cls-3" d="M172.39,173s0,36,14.15,37.2h0a11.78,11.78,0,0,0,8-2.68l30-24.72a20.71,20.71,0,0,1,29.16,2.84h0a7.52,7.52,0,0,1-1,10.6S225,212.37,201.43,243.7c-25.77,40-36.74,58.48-72.06,57.12"/><path class="cls-1" d="M132.84,303.39c-1.17,0-2.35,0-3.57-.07l.19-5c33,1.29,44-15.75,68-53l2-3.08c22.78-30.35,49-46.36,51.78-48a5,5,0,0,0,.55-7,18.24,18.24,0,0,0-25.64-2.5l-30,24.72a14.34,14.34,0,0,1-9.64,3.25h-.12c-16-1.4-16.43-35.78-16.43-39.69h5c0,8.72,2.19,33.77,11.81,34.71a9.22,9.22,0,0,0,6.2-2.11l30-24.72a23.24,23.24,0,0,1,32.68,3.18,10,10,0,0,1-1.37,14.12l-.33.23c-.27.16-27.53,16.23-50.44,46.71L201.64,248C178.17,284.46,166,303.39,132.84,303.39Z"/></svg>