<svg id="Capa_1" data-name="Capa 1" xmlns="http://www.w3.org/2000/svg" viewBox="0 0 233.93 292.75"><defs><style>.cls-1{fill:#f7e37c;}.cls-2{fill:#353536;}.cls-3{fill:#fff;}</style></defs><title>coronavirus</title><rect class="cls-1" x="5.08" y="174.05" width="228.85" height="100.26"/><path class="cls-2" d="M120,105.91A36.83,36.83,0,0,1,93.84,94.76l3.54-3.53a31.15,31.15,0,0,0,45.14,0l3.53,3.53A36.83,36.83,0,0,1,120,105.91Z"/><path class="cls-2" d="M89.47,52.6H82.24a8.83,8.83,0,0,1-8.82-8.82V41.86A8.83,8.83,0,0,1,82.24,33h7.23ZM82.24,38a3.82,3.82,0,0,0-3.82,3.82v1.92a3.82,3.82,0,0,0,3.82,3.82h2.23V38Z"/><path class="cls-2" d="M157.3,52.6h-7.23V33h7.23a8.83,8.83,0,0,1,8.81,8.82v1.92A8.83,8.83,0,0,1,157.3,52.6Zm-2.23-5h2.23a3.82,3.82,0,0,0,3.81-3.82V41.86A3.82,3.82,0,0,0,157.3,38h-2.23Z"/><rect class="cls-2" x="92.2" y="189.99" width="5" height="100.26"/><circle class="cls-3" cx="94.7" cy="240.12" r="7.96"/><path class="cls-2" d="M94.7,250.58a10.46,10.46,0,1,1,10.46-10.46A10.47,10.47,0,0,1,94.7,250.58Zm0-15.92a5.46,5.46,0,1,0,5.46,5.46A5.47,5.47,0,0,0,94.7,234.66Z"/><rect class="cls-2" x="132.97" y="189.99" width="5" height="100.26"/><circle class="cls-3" cx="135.47" cy="240.12" r="7.96"/><path class="cls-2" d="M135.47,250.58a10.46,10.46,0,1,1,10.46-10.46A10.47,10.47,0,0,1,135.47,250.58Zm0-15.92a5.46,5.46,0,1,0,5.46,5.46A5.47,5.47,0,0,0,135.47,234.66Z"/><rect class="cls-2" x="173.74" y="189.99" width="5" height="100.26"/><circle class="cls-3" cx="176.24" cy="240.12" r="7.96"/><path class="cls-2" d="M176.24,250.58a10.46,10.46,0,1,1,10.46-10.46A10.47,10.47,0,0,1,176.24,250.58Zm0-15.92a5.46,5.46,0,1,0,5.46,5.46A5.47,5.47,0,0,0,176.24,234.66Z"/><rect class="cls-2" x="214.51" y="189.99" width="5" height="100.26"/><circle class="cls-3" cx="217.01" cy="240.12" r="7.96"/><path class="cls-2" d="M217,250.58a10.46,10.46,0,1,1,10.46-10.46A10.47,10.47,0,0,1,217,250.58Zm0-15.92a5.46,5.46,0,1,0,5.46,5.46A5.47,5.47,0,0,0,217,234.66Z"/><rect class="cls-2" x="51.43" y="189.99" width="5" height="100.26"/><circle class="cls-3" cx="53.93" cy="240.12" r="7.96"/><path class="cls-2" d="M53.93,250.58a10.46,10.46,0,1,1,10.46-10.46A10.47,10.47,0,0,1,53.93,250.58Zm0-15.92a5.46,5.46,0,1,0,5.46,5.46A5.47,5.47,0,0,0,53.93,234.66Z"/><rect class="cls-2" x="10.66" y="189.99" width="5" height="100.26"/><circle class="cls-3" cx="13.16" cy="240.12" r="7.96"/><path class="cls-2" d="M13.16,250.58a10.46,10.46,0,1,1,10.46-10.46A10.47,10.47,0,0,1,13.16,250.58Zm0-15.92a5.46,5.46,0,1,0,5.46,5.46A5.47,5.47,0,0,0,13.16,234.66Z"/><rect class="cls-2" y="189.08" width="230.17" height="5"/><rect class="cls-2" y="287.75" width="230.17" height="5"/><polygon class="cls-2" points="158.06 194.08 81.48 194.08 81.48 131.54 86.48 131.54 86.48 189.08 153.06 189.08 153.06 135.99 158.06 135.99 158.06 194.08"/><path class="cls-2" d="M171.76,147.24c0-27.7-3.15-41.73-5.14-44.07s-5.64-4.34-11.11-5.84c-2.1-.58-4.3-1-6.62-1.38-2.59-.47-5.27-.94-8.21-1.73a11.85,11.85,0,0,1-5.5-3.29A12.28,12.28,0,0,1,132,83.22a35.82,35.82,0,0,1-24.39,0,12.16,12.16,0,0,1-3.22,7.71,11.78,11.78,0,0,1-5.48,3.28c-3,.8-5.64,1.27-8.23,1.74-2.32.41-4.52.8-6.62,1.38-3.48,1-8.42,2.59-11.09,5.82a27.87,27.87,0,0,0-5,9.53l-9.46,31.23-4.78-1.45,9.42-31.14A33,33,0,0,1,69.08,100c3.58-4.31,9.49-6.32,13.62-7.46,2.32-.63,4.63-1,7.07-1.48s5-.9,7.79-1.63a6.87,6.87,0,0,0,3.16-1.89,7.16,7.16,0,0,0,1.86-4.69V75.08l3.75,2.15a29.92,29.92,0,0,0,13.44,3.13,29.61,29.61,0,0,0,13.44-3.13L137,75.08v7.78a7.16,7.16,0,0,0,1.87,4.64A6.8,6.8,0,0,0,142,89.39c2.72.73,5.29,1.19,7.78,1.63s4.74.85,7.06,1.48c4.09,1.12,9.94,3.11,13.6,7.43,6,7.1,6.33,40.65,6.33,47.31Z"/><path class="cls-3" d="M63.58,133.58c-6.95,2.92-8.84,9.79-5.66,14.91,2.93,4.71,10,5.11,15.17,3.18,11.24-5.37,25.8-13.45,33-20.92,3.91-4,10.21-21.86,1.64-23.36-5.72-1-8.63,11.52-11.25,13.51-4,3.07-13.91,8.76-21.23,9.57A35.47,35.47,0,0,0,63.58,133.58Z"/><path class="cls-2" d="M67,155.26c-4.49,0-8.86-1.61-11.24-5.45a12.17,12.17,0,0,1-1.3-10.13,13.74,13.74,0,0,1,8-8.37A38.75,38.75,0,0,1,75,128c6.41-.7,15.73-5.83,20-9.07a21.74,21.74,0,0,0,2.14-3.84c2.29-4.7,5.43-11.12,11-10.14a7.2,7.2,0,0,1,5.78,5.14c2.23,6.87-2.73,19-6.06,22.42-8.63,8.92-26.48,18-33.76,21.43L74,154A20,20,0,0,1,67,155.26Zm40.11-45.42c-1.89,0-4.14,4.62-5.51,7.42-1.25,2.57-2.24,4.6-3.61,5.63-4.52,3.44-14.63,9.2-22.47,10.06a34,34,0,0,0-10.82,2.84l-.19.09a8.89,8.89,0,0,0-5.29,5.32,7.07,7.07,0,0,0,.79,6c2.1,3.38,7.76,3.77,12.06,2.19C79.21,146,96.3,137.3,104.33,129c2.47-2.54,6.44-12.62,4.89-17.4a2.18,2.18,0,0,0-1.88-1.75Z"/><path class="cls-2" d="M110.07,49a3.28,3.28,0,0,0-6.26,0L99,47.48a8.27,8.27,0,0,1,15.8,0Z"/><path class="cls-2" d="M135.62,49a3.28,3.28,0,0,0-6.26,0l-4.78-1.48a8.28,8.28,0,0,1,15.81,0Z"/><path class="cls-3" d="M167.26,139.1c7,2.92,8.84,9.79,5.66,14.91-2.93,4.71-10,5.11-15.17,3.18-11.24-5.38-25.8-13.45-33-20.92-3.91-4-10.21-21.86-1.64-23.36,5.72-1,8.63,11.52,11.25,13.51,4,3.07,13.91,8.76,21.23,9.57A35.47,35.47,0,0,1,167.26,139.1Z"/><path class="cls-2" d="M163.8,160.78a20,20,0,0,1-6.92-1.25l-.2-.09C149.4,156,131.55,146.92,122.92,138c-3.33-3.44-8.29-15.55-6.06-22.43a7.2,7.2,0,0,1,5.78-5.13c5.62-1,8.76,5.44,11,10.14a20.84,20.84,0,0,0,2.16,3.85c4.26,3.23,13.57,8.36,20,9.06a38.84,38.84,0,0,1,12.48,3.33,13.78,13.78,0,0,1,8,8.37A12.21,12.21,0,0,1,175,155.33C172.66,159.16,168.29,160.78,163.8,160.78Zm-5.07-5.9c4.31,1.57,10,1.19,12.06-2.19a7.07,7.07,0,0,0,.79-6,8.89,8.89,0,0,0-5.29-5.32l-.19-.09a33.87,33.87,0,0,0-10.82-2.84c-7.84-.86-17.95-6.63-22.47-10.06-1.37-1-2.36-3.06-3.61-5.63-1.41-2.9-3.81-7.77-5.7-7.4a2.18,2.18,0,0,0-1.88,1.75c-1.55,4.78,2.42,14.85,4.89,17.4C134.54,142.82,151.63,151.49,158.73,154.88Z"/><rect class="cls-2" x="51.43" y="72.81" width="5" height="18.36" transform="translate(-43.54 70.56) rotate(-49.98)"/><rect class="cls-2" x="44.6" y="90.07" width="5" height="18.36" transform="matrix(0.39, -0.92, 0.92, 0.39, -62.64, 104.36)"/><rect class="cls-2" x="67.26" y="63.09" width="5" height="18.36" transform="translate(-27.98 49.1) rotate(-32.68)"/><path class="cls-2" d="M120.74,84.72h-2.47a33.84,33.84,0,0,1-33.8-33.8V33.8A33.84,33.84,0,0,1,118.27,0h2.47a33.84,33.84,0,0,1,33.8,33.8V50.92A33.84,33.84,0,0,1,120.74,84.72ZM118.27,5a28.83,28.83,0,0,0-28.8,28.8V50.92a28.83,28.83,0,0,0,28.8,28.8h2.47a28.83,28.83,0,0,0,28.8-28.8V33.8A28.83,28.83,0,0,0,120.74,5Z"/><path class="cls-2" d="M152.66,39.11c-1.3,0-29.48-.29-41.52-15.23a25.36,25.36,0,0,1-6.65,9.06c-5.82,5-12.72,6.1-17.49,6.17l-.07-5a22.26,22.26,0,0,0,14.3-5,21.29,21.29,0,0,0,6.64-11.07,2.57,2.57,0,0,1,1.87-2.33,2.6,2.6,0,0,1,3,1.48c8.18,16.59,39.59,16.89,39.91,16.89Z"/><path class="cls-2" d="M169.91,84.17A20.4,20.4,0,0,1,149.54,63.8h5a15.38,15.38,0,0,0,14.83,15.36V36.79a15.37,15.37,0,0,0-20.29-14.56l-1.6-4.74a20.37,20.37,0,0,1,26.89,19.3l0,47-2.22.25A20.83,20.83,0,0,1,169.91,84.17Z"/><rect class="cls-2" x="149.54" y="49.72" width="5" height="14.09"/></svg>