<svg id="Capa_1" data-name="Capa 1" xmlns="http://www.w3.org/2000/svg" viewBox="0 0 280.94 301.88"><defs><style>.cls-1{fill:#f7e37c;}.cls-2{fill:#353536;}</style></defs><title>coronavirus</title><path class="cls-1" d="M187.67,211.33V156.77s-39-9.43-56.89-9.43-57.85,9.43-57.85,9.43v53.71c4.7,4.3,25.65,22.47,57.85,22.47C162.16,233,182.77,215.68,187.67,211.33Z"/><path class="cls-2" d="M141,279.3c-24.15,0-47.36-9.92-65.37-27.93l3.54-3.54c17.06,17.07,39,26.47,61.83,26.47s44.76-9.4,61.82-26.47l3.54,3.54C188.3,269.38,165.09,279.3,141,279.3Z"/><path class="cls-2" d="M141,225.37c-30.88,0-51.92-16.17-59.54-23.12l-.81-.75V144.71l1.93-.45c1.64-.39,40.46-9.5,58.42-9.5s55.88,9.11,57.48,9.5l1.91.46v57.66l-.84.74C192,209.81,171.15,225.37,141,225.37ZM85.6,199.29c7.79,6.89,27.25,21.08,55.35,21.08,27.43,0,46.65-13.61,54.39-20.25V148.67c-8-1.87-39.26-8.91-54.39-8.91s-47.18,7.06-55.35,8.92Z"/><rect class="cls-2" x="66.67" y="108.23" width="5" height="43.51" transform="translate(-67.19 74.43) rotate(-39.81)"/><rect class="cls-2" x="190.02" y="127.48" width="43.51" height="5" transform="translate(-23.67 209.41) rotate(-50.18)"/><path class="cls-2" d="M140.47,225.62a88.31,88.31,0,0,1-88.21-88.21V98.84A87.9,87.9,0,0,1,57.4,69.11l4.71,1.69a82.77,82.77,0,0,0-4.85,28v38.57a83.21,83.21,0,0,0,166.42,0V98.84a83.31,83.31,0,0,0-83.21-83.21v-5a88.31,88.31,0,0,1,88.21,88.21v38.57A88.31,88.31,0,0,1,140.47,225.62Z"/><path class="cls-2" d="M280.94,301.88H0l0-2.51a49.9,49.9,0,0,1,11.11-29C19.74,260,34.4,255,44.68,252.21c5.89-1.62,11.83-2.67,18.11-3.79,6.58-1.17,13.38-2.39,20.69-4.34A22.14,22.14,0,0,0,93.63,238a22.8,22.8,0,0,0,6-14.93V209.75l3.75,2.15a83.39,83.39,0,0,0,74.25,0l3.74-2.15v13.37a22.81,22.81,0,0,0,6,14.88,22.07,22.07,0,0,0,10.16,6.08c7.29,1.95,14.09,3.17,20.67,4.34,6.29,1.12,12.22,2.17,18.11,3.79,10.28,2.82,24.94,7.77,33.55,18.16a50,50,0,0,1,11.12,29Zm-275.72-5H275.73A45.74,45.74,0,0,0,266,273.56c-7.71-9.3-21.39-13.89-31-16.53-5.67-1.55-11.5-2.59-17.67-3.69-6.68-1.19-13.59-2.42-21.1-4.43a27.12,27.12,0,0,1-12.49-7.48,27.92,27.92,0,0,1-7.34-18.26v-5.08a89.2,89.2,0,0,1-71.74,0v5a28,28,0,0,1-7.33,18.31A27.14,27.14,0,0,1,84.8,248.9c-7.54,2-14.45,3.25-21.13,4.44-6.17,1.1-12,2.14-17.67,3.69-9.62,2.64-23.31,7.23-31,16.53A45.62,45.62,0,0,0,5.22,296.88Z"/><path class="cls-2" d="M57.26,140H44.92a21.52,21.52,0,0,1,0-43H57.26ZM44.92,102a16.52,16.52,0,0,0,0,33h7.34V102Z"/><path class="cls-2" d="M236,140H223.68V97H236a21.52,21.52,0,1,1,0,43Zm-7.35-5H236a16.52,16.52,0,1,0,0-33h-7.35Z"/><circle class="cls-2" cx="106.96" cy="123.13" r="9.47"/><circle class="cls-2" cx="173.71" cy="123.13" r="9.47"/><path class="cls-2" d="M228.43,104.94l-3.1-.42c-3.28-.42-8.23-1-15.6-8.1-9.43-9-12.58-16.74-15.45-25.16L199,69.64c2.75,8.07,5.55,14.9,14.18,23.17,4.7,4.49,8,5.85,10.59,6.4A87.88,87.88,0,0,0,219,71.26l4.74-1.61c6.16,18.1,5,32.1,4.94,32.69Z"/><rect class="cls-2" x="63.44" y="67.95" width="135.81" height="5"/><path class="cls-2" d="M65.39,73c-20-1-36.37-17.45-36.45-36.57C28.87,20,40.42,5.4,57,.79L59.86,0l.31,2.94a8.75,8.75,0,0,0,2.12,4.9c2.78,3.09,7,2.84,7.49,2.8h70.69c1.11,0,29.74-.87,53.44,18a95,95,0,0,1,29.83,41L219,71.23h0a91.55,91.55,0,0,0-28.17-38.65c-22.23-17.72-50-16.94-50.25-16.95H70.08c-1.41.1-7.33.2-11.51-4.45a13.49,13.49,0,0,1-2.74-4.77c-13.07,4.71-21.94,16.69-21.89,30C34,52.87,48.24,67.05,65.65,68Z"/></svg>