<svg id="Capa_1" data-name="Capa 1" xmlns="http://www.w3.org/2000/svg" viewBox="0 0 166.6 277.29"><defs><style>.cls-1{fill:#fff;}.cls-2{fill:#353536;}.cls-3{fill:#f7e37c;}</style></defs><title>coronavirus</title><path class="cls-1" d="M164.1,274.79H43.4V120A43.26,43.26,0,0,1,55.74,89.75l25-25.56h47.81l23.95,25.72a43.24,43.24,0,0,1,11.59,29.47Z"/><path class="cls-2" d="M166.6,277.29H40.9V120A45.55,45.55,0,0,1,54,88L79.7,61.7h50l24.69,26.5a45.62,45.62,0,0,1,12.26,31.18Zm-120.7-5H161.6V119.38a40.65,40.65,0,0,0-10.92-27.77L127.48,66.7H81.8L57.53,91.5A40.53,40.53,0,0,0,45.9,120Z"/><path class="cls-2" d="M131.06,66.7H78.25V47.92a11,11,0,0,1,11-11h30.85a11,11,0,0,1,11,11Zm-47.81-5h42.81V47.92a6,6,0,0,0-6-6H89.23a6,6,0,0,0-6,6Z"/><path class="cls-2" d="M117.51,41.94H91.8V12a12,12,0,0,1,12-12h1.72a12,12,0,0,1,12,12Zm-20.71-5h15.71V12a7,7,0,0,0-7-7H103.8a7,7,0,0,0-7,7Z"/><path class="cls-2" d="M13.19,50.68,0,37.49,25.54,12H96.8V30.61H33.26ZM7.07,37.49l6.12,6.12,18-18H91.8V17H27.61Z"/><polygon class="cls-3" points="150.11 165.54 124.34 165.54 124.34 139.77 100.44 139.77 100.44 165.54 74.67 165.54 74.67 189.44 100.44 189.44 100.44 215.21 124.34 215.21 124.34 189.44 150.11 189.44 150.11 165.54"/><path class="cls-2" d="M118,209.71H89.14V183.94H63.37V155H89.14V129.27H118V155h25.77v28.9H118Zm-23.9-5H113V178.94h25.77V160H113V134.27H94.14V160H68.37v18.9H94.14Z"/></svg>