<svg id="Capa_1" data-name="Capa 1" xmlns="http://www.w3.org/2000/svg" viewBox="0 0 278.6 297.07"><defs><style>.cls-1{fill:#f7e37c;}.cls-2{fill:#353536;}.cls-3{fill:#fff;}</style></defs><title>coronavirus</title><path class="cls-1" d="M278.6,264.36H167.91V122.42a39.65,39.65,0,0,1,11.32-27.74l22.93-23.43H246L268,94.82a39.67,39.67,0,0,1,10.64,27Z"/><path class="cls-2" d="M267.47,254.69H151.79V110.25a41.92,41.92,0,0,1,12-29.48l23.67-24.19h46L256.17,81a42,42,0,0,1,11.3,28.73Zm-110.68-5H262.47v-140a37.05,37.05,0,0,0-10-25.32L231.29,61.58h-41.7l-22.2,22.68a37,37,0,0,0-10.6,26Z"/><polygon class="cls-3" points="264.85 144.67 241.22 144.67 241.22 121.05 219.29 121.05 219.29 144.67 195.67 144.67 195.67 166.6 219.29 166.6 219.29 190.22 241.22 190.22 241.22 166.6 264.85 166.6 264.85 144.67"/><path class="cls-2" d="M243.72,192.72H216.79V169.1H193.17V142.17h23.62V118.55h26.93v23.62h23.62V169.1H243.72Zm-21.93-5h16.93V164.1h23.62V147.17H238.72V123.55H221.79v23.62H198.17V164.1h23.62Z"/><path class="cls-2" d="M234.88,61.58H186V44.86a11,11,0,0,1,11-11H223.9a11,11,0,0,1,11,11Zm-43.84-5h38.84V44.86a6,6,0,0,0-6-6H197a6,6,0,0,0-6,6Z"/><path class="cls-2" d="M222.46,38.87h-24V12a12,12,0,0,1,24,0Zm-19-5h14V12a7,7,0,0,0-14,0Z"/><path class="cls-2" d="M126.58,47,114.19,34.59,137.82,11h65.64V28.48H145.07Zm-5.32-12.39,5.32,5.32L143,23.48h55.46V16H139.89Z"/><path class="cls-3" d="M123.38,110.25,179.17,166a7.54,7.54,0,0,1,0,10.69c-8.11,8.12-24.57,4.83-32.69-3.29l-27.15-27.15,84,84a14.17,14.17,0,0,1-20,20l-60-60,69.27,69.28a14.17,14.17,0,1,1-20,20l-69.28-69.28,60,60a14.17,14.17,0,0,1-20.05,20l-60-60,36.19,36.19a14.17,14.17,0,0,1-20,20L23.26,210.57A70.87,70.87,0,0,1,123.48,110.35"/><path class="cls-2" d="M153.22,297.07a16.57,16.57,0,0,1-11.79-4.88L126,276.78a16.68,16.68,0,0,1-28.47,11.63L21.49,212.33A73.36,73.36,0,0,1,125.15,108.49l0,.05a.08.08,0,0,1,0,0l55.7,55.7a10,10,0,0,1,0,14.22c-4.33,4.34-10.88,6.16-18.44,5.15-.93-.12-1.85-.29-2.77-.49l45.37,45.36A16.68,16.68,0,0,1,193.48,257l.84.84a16.67,16.67,0,0,1-23.58,23.58l-.85-.85a16.66,16.66,0,0,1-16.67,16.51Zm-32.08-32.24L145,288.66a11.67,11.67,0,0,0,16.51-16.51l-60-60L105,208.6l69.28,69.28a11.67,11.67,0,0,0,16.51-16.51l-9.17-9.17-.1-.1-60-60,3.53-3.54,60.1,60.1a11.67,11.67,0,0,0,16.43-16.59l-56.75-56.75-.11-.1-27.15-27.16,3.54-3.53,27.24,27.24a26.76,26.76,0,0,0,14.82,6.94c3.47.46,9.92.59,14.25-3.74a5.06,5.06,0,0,0,0-7.15l-55.7-55.7A68.37,68.37,0,0,0,25,208.8l76.08,76.07a11.67,11.67,0,1,0,16.51-16.51L81.42,232.18,85,228.64Z"/><path class="cls-3" d="M121.05,144.57c-4,4.55-12.72,13.13-23.36,18.32a69.22,69.22,0,0,1-34.15,6.8"/><path class="cls-2" d="M67.43,172.3c-1.43,0-2.78,0-4-.11l.28-5a66.85,66.85,0,0,0,32.92-6.56c11.48-5.59,20.17-15,22.56-17.71l3.77,3.28c-2.55,2.92-11.82,12.92-24.14,18.93A71.61,71.61,0,0,1,67.43,172.3Z"/><path class="cls-3" d="M68.13,237a208.78,208.78,0,0,0,29.79-20,209,209,0,0,0,36.62-38"/><path class="cls-2" d="M69.33,239.18l-2.41-4.38a206.81,206.81,0,0,0,29.44-19.72,206.33,206.33,0,0,0,36.17-37.51l4,3a211.34,211.34,0,0,1-37,38.41A211.32,211.32,0,0,1,69.33,239.18Z"/><circle class="cls-1" cx="111.49" cy="74.83" r="9.55"/><circle class="cls-1" cx="79.65" cy="172.87" r="19.1"/><path class="cls-2" d="M117.73,81.12a12,12,0,1,1,12-12.05A12.06,12.06,0,0,1,117.73,81.12Zm0-19.1a7.05,7.05,0,1,0,7,7A7.06,7.06,0,0,0,117.73,62Z"/><path class="cls-2" d="M85.89,188.71a21.6,21.6,0,1,1,21.6-21.6A21.62,21.62,0,0,1,85.89,188.71Zm0-38.2a16.6,16.6,0,1,0,16.6,16.6A16.62,16.62,0,0,0,85.89,150.51Z"/></svg>