<svg id="Capa_1" data-name="Capa 1" xmlns="http://www.w3.org/2000/svg" viewBox="0 0 249.13 317.85"><defs><style>.cls-1{fill:#f7e37c;}.cls-2{fill:#353536;}.cls-3{fill:#fff;}</style></defs><title>coronavirus</title><circle class="cls-1" cx="41.95" cy="97.42" r="24.41"/><path class="cls-1" d="M42,134.42h0C18.78,134.42,0,151.15,0,171.78V222.1c0,7.22,6.58,13.08,14.69,13.08H20v62.3c0,7.23,6.58,13.09,14.7,13.09H49.22c8.12,0,14.7-5.86,14.7-13.09v-62.3h5.29c8.11,0,14.69-5.86,14.69-13.08V171.78C83.9,151.15,65.12,134.42,42,134.42Z"/><path class="cls-2" d="M53.74,129.12a26.91,26.91,0,1,1,26.9-26.91A26.94,26.94,0,0,1,53.74,129.12Zm0-48.82a21.91,21.91,0,1,0,21.9,21.91A21.94,21.94,0,0,0,53.74,80.3Z"/><path class="cls-2" d="M61,317.85H46.47c-9.49,0-17.21-7-17.21-15.59V242.47H26.48c-9.48,0-17.2-7-17.2-15.59V176.56c0-22,19.94-39.85,44.46-39.85s44.45,17.88,44.45,39.85v50.32c0,8.6-7.72,15.59-17.2,15.59H78.21v59.79C78.21,310.86,70.49,317.85,61,317.85ZM53.74,141.71c-21.76,0-39.46,15.63-39.46,34.85v50.32c0,5.84,5.47,10.59,12.2,10.59h7.78v64.79c0,5.84,5.48,10.59,12.21,10.59H61c6.73,0,12.21-4.75,12.21-10.59V237.47H81c6.73,0,12.2-4.75,12.2-10.59V176.56C93.19,157.34,75.49,141.71,53.74,141.71Z"/><path class="cls-2" d="M204.68,123.33a26.91,26.91,0,1,1,26.91-26.91A26.94,26.94,0,0,1,204.68,123.33Zm0-48.81a21.91,21.91,0,1,0,21.91,21.9A21.93,21.93,0,0,0,204.68,74.52Z"/><path class="cls-3" d="M204.68,133.42h0c-23.17,0-42,16.73-42,37.36V221.1c0,7.22,6.58,13.08,14.69,13.08h5.29v62.3c0,7.23,6.58,13.09,14.7,13.09H212c8.12,0,14.7-5.86,14.7-13.09v-62.3h5.29c8.11,0,14.69-5.86,14.69-13.08V170.78C246.63,150.15,227.85,133.42,204.68,133.42Z"/><path class="cls-2" d="M212,312.07H197.41c-9.49,0-17.2-7-17.2-15.59v-59.8h-2.79c-9.48,0-17.19-7-17.19-15.58V170.78c0-22,19.94-39.86,44.45-39.86s44.45,17.88,44.45,39.86V221.1c0,8.59-7.71,15.58-17.19,15.58h-2.79v59.8C229.15,305.07,221.44,312.07,212,312.07Zm-7.27-176.15c-21.75,0-39.45,15.64-39.45,34.86V221.1c0,5.83,5.47,10.58,12.19,10.58h7.79v64.8c0,5.84,5.47,10.59,12.2,10.59H212c6.73,0,12.2-4.75,12.2-10.59v-64.8h7.79c6.72,0,12.19-4.75,12.19-10.58V170.78C244.13,151.56,226.43,135.92,204.68,135.92Z"/><rect class="cls-2" x="69.7" y="46.2" width="106.24" height="5"/><polygon class="cls-2" points="82.95 65.06 85.68 62.13 71.23 48.7 85.68 35.27 82.95 32.34 65.36 48.7 82.95 65.06"/><polygon class="cls-2" points="162.68 65.06 159.95 62.13 174.4 48.7 159.95 35.27 162.68 32.34 180.27 48.7 162.68 65.06"/><path class="cls-2" d="M96.64,21.36H92.4V5L87.35,6.58V3.16L96.18,0h.46Z"/><path class="cls-2" d="M104.84,26.7l-2.21-1.15.52-1a7.53,7.53,0,0,0,1-3.55V17.75h3.57l0,2.93A7.53,7.53,0,0,1,106.9,24,8.21,8.21,0,0,1,104.84,26.7Z"/><path class="cls-2" d="M111.52,10.87,112.75,0h12V3.56h-8.48l-.53,4.58a6.82,6.82,0,0,1,3.21-.8,6.17,6.17,0,0,1,4.78,1.89,7.56,7.56,0,0,1,1.73,5.29,7.71,7.71,0,0,1-.88,3.69A6.16,6.16,0,0,1,122,20.75a7.84,7.84,0,0,1-3.84.9,8.3,8.3,0,0,1-3.59-.78A6.39,6.39,0,0,1,112,18.66a5.92,5.92,0,0,1-1-3.24h4.19a3.09,3.09,0,0,0,.93,2.08,2.94,2.94,0,0,0,2.08.74,2.64,2.64,0,0,0,2.22-1,4.86,4.86,0,0,0,.77-2.93,4,4,0,0,0-.89-2.78,3.27,3.27,0,0,0-2.54-1,3.69,3.69,0,0,0-2.44.79l-.41.38Z"/><path class="cls-2" d="M139.72,5.51l.13,1.77a5.56,5.56,0,0,1,4.55-2.07,4.24,4.24,0,0,1,4.21,2.42,5.44,5.44,0,0,1,4.76-2.42,4.74,4.74,0,0,1,3.84,1.51,6.89,6.89,0,0,1,1.26,4.52V21.36h-4.25V11.23a3.06,3.06,0,0,0-.53-2,2.35,2.35,0,0,0-1.86-.62,2.65,2.65,0,0,0-2.64,1.82l0,10.91H145V11.24a3,3,0,0,0-.55-2,2.34,2.34,0,0,0-1.84-.61,2.75,2.75,0,0,0-2.61,1.5V21.36h-4.23V5.51Z"/></svg>