<svg id="Capa_1" data-name="Capa 1" xmlns="http://www.w3.org/2000/svg" viewBox="0 0 323.63 300.46"><defs><style>.cls-1{fill:#353536;}.cls-2{fill:#f7e37c;}</style></defs><title>coronavirus</title><polygon class="cls-1" points="277.48 300.46 46.15 300.46 46.15 116.41 51.15 116.41 51.15 295.46 272.48 295.46 272.48 116.41 277.48 116.41 277.48 300.46"/><polygon class="cls-1" points="320.09 165.35 161.81 7.07 3.54 165.35 0 161.81 161.81 0 323.63 161.81 320.09 165.35"/><path class="cls-2" d="M247.38,176.37l-5.53,7.35a2.93,2.93,0,0,1-5-.54c-1.68-3.68-4.14-8.59-6.16-10.79s-5.53-2.38-7.85-2.08a2.2,2.2,0,0,0-1.84,2.78h0a2.82,2.82,0,0,1-1.3,3.22l-11.19,6.49a2.67,2.67,0,0,1-3.78-1.22L198.62,168a11.54,11.54,0,0,0-2.2-3.27L193,161.06a9,9,0,0,0-3.41-2.24l-4-1.47-23.49-3.76a12.21,12.21,0,0,0-12.91,8.61,1,1,0,0,1-1.86.19l-6.39-10.66a3,3,0,0,1-.22-2.65l3.63-9.17a7,7,0,0,1,4.08-4L165,129.63a7.55,7.55,0,0,0,3.43-2.57l8.42-11.22A79.06,79.06,0,0,1,219,131.93C239.91,148.11,245.85,169.85,247.38,176.37Z"/><path class="cls-2" d="M94.24,181.49l4.34,5.82a4.18,4.18,0,0,0,4,1.64l6.13-.88a1.72,1.72,0,0,0,1.3-2.48l-2.22-4.43a3,3,0,0,1,.83-3.71l4.51-3.56a8.88,8.88,0,0,0,2.6-3.34l2.81-6.33a8.42,8.42,0,0,1,1.79-2.58c2.6-2.53,8.85-9.23,8.61-14.94-.32-7.2-8-12.53-8-12.53a78,78,0,0,0-26.6,47.32Z"/><path class="cls-2" d="M124.19,255.81s-1.2-15.6,7-22.31c2.94-2.4,2.39-6.92,2.7-11s-1.25-8.46-5-10.65a18,18,0,0,0-6.76-2.06,7.5,7.5,0,0,1-3.8-1.54l-10.41-8.17a4,4,0,0,0-4.12-.53l-9.56,4.15a76.32,76.32,0,0,0,30,52.1Z"/><path class="cls-2" d="M211.93,221.66a2.52,2.52,0,0,1,4.16,2.15,49.23,49.23,0,0,1-1.69,9c-2.19,7.21-4.38,12.53-8.14,9.71s-.63-17.23,3.13-19.1A12.49,12.49,0,0,0,211.93,221.66Z"/><path class="cls-2" d="M160,165.18a7,7,0,0,1,5.09,4.19,5.25,5.25,0,0,0,3.26,3.17A9.7,9.7,0,0,0,175,172a8.24,8.24,0,0,1,4.76-.4c3.09.65,7.71,2,8.93,4.19,1.87,3.45,6.26,15.26,10,17.81a18.33,18.33,0,0,0,3,1.66,3.89,3.89,0,0,1,1.49,5.95c-2.95,3.79-6.67,9.05-7.05,11.86a34,34,0,0,0,0,7.12,9.08,9.08,0,0,1-1.36,5.65l-7.36,11.66s-4.59,11-10.6,10.65c-5-.26-8.62-14.5-9.72-19.38a10.07,10.07,0,0,1-.22-3.05c.25-3.13.64-10.52-1.07-13-1.39-2-2.4-5.48-3-7.77a4.38,4.38,0,0,0-3.39-3.28,14.63,14.63,0,0,0-8.37,1c-5,2.07-10.61-3.8-13.21-7.08a10.4,10.4,0,0,1-2.09-4.44c-.64-3.09-1.35-8.36.57-10.72,2.82-3.44,9.71-11.9,9.71-11.9s5.64-4.7,10.34-4.07C157.74,164.73,158.94,165,160,165.18Z"/><path class="cls-1" d="M161.81,265.7a80.5,80.5,0,1,1,80.5-80.5A80.59,80.59,0,0,1,161.81,265.7Zm0-156a75.5,75.5,0,1,0,75.5,75.49A75.57,75.57,0,0,0,161.81,109.71Z"/><path class="cls-1" d="M230,179q-.3,0-.6,0a5.39,5.39,0,0,1-4.35-3.14c-2.29-5-4.33-8.61-5.73-10.14s-3.8-1.49-5.35-1.33a5.33,5.33,0,0,1-2.54,5.73l-11.19,6.48a5.18,5.18,0,0,1-7.32-2.36l-6.11-13.63a9.15,9.15,0,0,0-1.73-2.57l-3.44-3.62a6.54,6.54,0,0,0-2.46-1.61l-3.76-1.39-23.16-3.7a10,10,0,0,0-6.18,1.5,10.1,10.1,0,0,0-4.06,5.4,3.46,3.46,0,0,1-2.95,2.39,3.53,3.53,0,0,1-3.42-1.69l-6.39-10.66a5.51,5.51,0,0,1-.4-4.86l3.63-9.17a9.57,9.57,0,0,1,5.52-5.44l16.6-6.26a5.08,5.08,0,0,0,2.31-1.73l9.24-12.31,1.37.1A80.9,80.9,0,0,1,211,121.51a81.84,81.84,0,0,1,29.29,45.85l.26,1.14-6.22,8.28A5.37,5.37,0,0,1,230,179Zm-14.77-19.71a10.16,10.16,0,0,1,7.78,3c1.79,2,4,5.81,6.59,11.44a.41.41,0,0,0,.34.25.4.4,0,0,0,.39-.17l4.81-6.41a76.65,76.65,0,0,0-27.2-41.9A75.77,75.77,0,0,0,168.55,110L161,120.12a10.1,10.1,0,0,1-4.54,3.41l-16.59,6.26a4.55,4.55,0,0,0-2.64,2.59l-3.63,9.18a.51.51,0,0,0,0,.45l4.93,8.21a14.63,14.63,0,0,1,4.91-5.29,15.11,15.11,0,0,1,9.4-2.27l.18,0,23.73,3.8L181,148a11.59,11.59,0,0,1,4.35,2.85l3.45,3.62a14.32,14.32,0,0,1,2.66,4l6.11,13.64a.17.17,0,0,0,.11.09.15.15,0,0,0,.14,0L209,165.71a.34.34,0,0,0,.15-.38,4.69,4.69,0,0,1,3.93-5.94A17.4,17.4,0,0,1,215.27,159.24ZM213.92,164Z"/><path class="cls-1" d="M92.45,183.05a6.71,6.71,0,0,1-5.36-2.68l-5-6.67.17-1a80.37,80.37,0,0,1,27.44-48.83l1.46-1.24,1.58,1.08c.36.25,8.77,6.13,9.13,14.48.28,6.46-5.74,13.33-9.36,16.84a5.7,5.7,0,0,0-1.25,1.81l-2.82,6.33a11.36,11.36,0,0,1-3.33,4.29l-4.5,3.55a.53.53,0,0,0-.15.63l2.22,4.43a4.23,4.23,0,0,1-3.19,6.08L93.4,183A7.69,7.69,0,0,1,92.45,183.05Zm-5-10.64,3.7,5a1.71,1.71,0,0,0,1.59.66l5.07-.73L96,173.84a5.55,5.55,0,0,1,1.52-6.8l4.51-3.55a6.41,6.41,0,0,0,1.86-2.39l2.81-6.33a10.81,10.81,0,0,1,2.34-3.36c3.9-3.8,8-9.22,7.84-13-.17-4.06-3.49-7.6-5.48-9.37a75.3,75.3,0,0,0-24,43.41Z"/><path class="cls-1" d="M117.62,252.69l-4.42-3.33A78.62,78.62,0,0,1,94,228.64a79.61,79.61,0,0,1-11.75-33.07l-.22-1.85,11.26-4.89a6.53,6.53,0,0,1,6.66.85l10.41,8.17a4.94,4.94,0,0,0,2.54,1,20.31,20.31,0,0,1,7.74,2.38c4.27,2.49,6.66,7.48,6.24,13-.06.77-.09,1.57-.12,2.36-.12,3.62-.26,7.73-3.49,10.38-5.91,4.82-6.41,16.2-6.11,20.18ZM87.48,196.81A74.8,74.8,0,0,0,98.25,226a73.47,73.47,0,0,0,14,16.21c.37-5.6,2-14.2,7.9-19,1.47-1.2,1.56-3.74,1.66-6.67,0-.86.06-1.73.12-2.57.22-2.83-.66-6.49-3.77-8.31a15.4,15.4,0,0,0-5.8-1.72,10.09,10.09,0,0,1-5-2.06l-10.41-8.18a1.55,1.55,0,0,0-1.58-.2Z"/><path class="cls-1" d="M198.72,237.38a5.67,5.67,0,0,1-3.45-1.27c-2.68-2-2.89-6.32-2.6-9.59.41-4.5,2.37-11.88,6.12-13.75a9.73,9.73,0,0,0,2-1.42h0a5,5,0,0,1,8.3,4.28,50.52,50.52,0,0,1-1.78,9.5c-2.08,6.82-3.91,11-7.12,12A4.88,4.88,0,0,1,198.72,237.38Zm5.39-22.29a14.09,14.09,0,0,1-3.09,2.15c-.94.53-3,4.85-3.39,10-.26,3.4.44,4.69.64,4.84a2.35,2.35,0,0,0,.42.26c.56-.3,1.76-1.87,3.83-8.7a46,46,0,0,0,1.6-8.55h0Z"/><path class="cls-1" d="M167.63,242.26h-.38c-4.84-.25-8.89-7.43-12-21.32a12.83,12.83,0,0,1-.27-3.81c.52-6.43,0-10.38-.62-11.33a26.29,26.29,0,0,1-3.34-8.62,1.87,1.87,0,0,0-1.44-1.41,12.07,12.07,0,0,0-6.95.89c-4.81,2-10.54-.82-16.12-7.84a13.29,13.29,0,0,1-2.58-5.49c-1.26-6.08-.89-10.39,1.09-12.81l9.71-11.9.34-.34c.66-.55,6.64-5.39,12.27-4.63,1.23.16,2.49.38,3.74.65h0a9.49,9.49,0,0,1,6.9,5.73,2.72,2.72,0,0,0,1.75,1.72,7.29,7.29,0,0,0,4.92-.46,10.72,10.72,0,0,1,6.2-.53c5.81,1.22,9.28,3,10.61,5.45.54,1,1.23,2.52,2,4.29,1.75,3.9,5,11.16,7.21,12.64a15,15,0,0,0,2.63,1.43,6.38,6.38,0,0,1,2.47,9.79c-5.73,7.37-6.45,10-6.53,10.65a31.47,31.47,0,0,0,0,6.57,11.72,11.72,0,0,1-1.74,7.2l-7.25,11.5C179.36,232.2,174.66,242.26,167.63,242.26Zm-20-51.68a15.16,15.16,0,0,1,2.85.27,6.86,6.86,0,0,1,5.34,5.14,23.37,23.37,0,0,0,2.58,6.93c1.6,2.29,2.11,7.2,1.52,14.61a7.65,7.65,0,0,0,.16,2.29c2.92,12.91,6.32,17.38,7.42,17.43,3.15.21,6.88-6.07,8.16-9.12l.19-.36,7.35-11.67a6.55,6.55,0,0,0,1-4.08,36,36,0,0,1,.06-7.68c.13-1,.54-4,7.55-13.06a1.43,1.43,0,0,0,.25-1.23,1.32,1.32,0,0,0-.76-.9,20.74,20.74,0,0,1-3.46-1.88c-3.11-2.1-5.9-7.92-9-14.73-.76-1.68-1.41-3.13-1.85-3.95-.31-.56-2.21-1.89-7.25-2.94a5.72,5.72,0,0,0-3.31.27,12.18,12.18,0,0,1-8.43.55,7.73,7.73,0,0,1-4.77-4.63,4.55,4.55,0,0,0-3.29-2.66h0c-1.13-.24-2.25-.44-3.35-.58-2.83-.39-6.81,2.23-8.23,3.37-1.06,1.29-7,8.57-9.56,11.7-.68.84-1.1,3.6-.06,8.64a8.15,8.15,0,0,0,1.6,3.39c1.48,1.86,6.61,7.83,10.31,6.32A18.26,18.26,0,0,1,147.64,190.58Z"/></svg>