<svg id="Capa_1" data-name="Capa 1" xmlns="http://www.w3.org/2000/svg" viewBox="0 0 303.61 269.9"><defs><style>.cls-1{fill:#353536;}.cls-2{fill:#f7e37c;}.cls-3{fill:#fff;}</style></defs><title>coronavirus</title><path class="cls-1" d="M247,269.9A16.53,16.53,0,0,1,235.28,265l-15.35-15.35a16.62,16.62,0,0,1-28.38,11.58l-75.82-75.83A73.13,73.13,0,0,1,219.15,82a207.31,207.31,0,0,0,57.61,40.26l.32.17a10,10,0,0,1,3.34,13.79c-3.18,5.22-9.09,8.53-16.66,9.33a31.71,31.71,0,0,1-19.21-4l-14.85-9,69.05,69.05a16.62,16.62,0,0,1-11.58,28.37l.84.84a16.63,16.63,0,0,1-23.52,23.51l-.83-.83A16.63,16.63,0,0,1,247,269.9Zm-68-68.23,59.82,59.82a11.62,11.62,0,0,0,16.44-16.44l-59.82-59.82L199,181.7l69,69.05a11.63,11.63,0,1,0,16.44-16.45l-69.05-69.05,3.53-3.53,59.82,59.82a11.63,11.63,0,0,0,16.45-16.45l-83.73-83.73,1.39-1.39,1.58-2.6,32.69,19.91c8.79,5.35,23.9,4.71,29-3.67a5,5,0,0,0-1.55-6.83c-2.86-1.24-32.08-14.33-59-41.24a68.14,68.14,0,0,0-96.36,96.36l75.83,75.82a11.62,11.62,0,0,0,16.44-16.44l-36.07-36.07Z"/><path class="cls-2" d="M133.94,70.6a38.08,38.08,0,0,0-55.77,43.23q.26.94.57,1.86A38.09,38.09,0,0,0,105.13,185l.09.36a38.1,38.1,0,0,0,47,26.41c.91-.26,1.79-.55,2.67-.87a38.09,38.09,0,0,0,66.79-33.6,38.09,38.09,0,0,0-19-73.75A38.09,38.09,0,1,0,133.94,70.6Z"/><circle class="cls-2" cx="110.98" cy="19.1" r="19.1"/><circle class="cls-2" cx="256.21" cy="51.32" r="9.55"/><circle class="cls-2" cx="63.16" cy="73.37" r="9.55"/><path class="cls-1" d="M173.62,238.89a40.38,40.38,0,0,1-30.88-14.35c-.39.13-.77.24-1.15.35a40.64,40.64,0,0,1-49.53-26.47,40.59,40.59,0,0,1-27.51-73l0-.2a40.62,40.62,0,0,1,28.13-50,40.2,40.2,0,0,1,29,2.71A40.59,40.59,0,0,1,195.48,111a40.59,40.59,0,0,1,17.89,78.69,40.59,40.59,0,0,1-28.72,47.68A41.08,41.08,0,0,1,173.62,238.89Zm-29.17-20.25,1.11,1.44A35.59,35.59,0,0,0,208,188.68l-.68-2.41,2.41-.67a35.59,35.59,0,0,0-17.78-68.91l-5.22,1.24,2.42-4.79A35.59,35.59,0,1,0,125,82.35l-1.15,2.51-2.38-1.38a35.58,35.58,0,0,0-52.12,40.38c.17.59.35,1.17.54,1.75l.6,1.8-1.57,1.06a35.59,35.59,0,0,0,24.65,64.76l2.17-.29.67,2.46a35.63,35.63,0,0,0,43.87,24.67c.76-.21,1.55-.47,2.5-.81Z"/><path class="cls-1" d="M102.72,48.41a21.6,21.6,0,1,1,21.6-21.6A21.62,21.62,0,0,1,102.72,48.41Zm0-38.2a16.6,16.6,0,1,0,16.6,16.6A16.62,16.62,0,0,0,102.72,10.21Z"/><path class="cls-1" d="M248,71.08A12,12,0,1,1,260,59,12.06,12.06,0,0,1,248,71.08ZM248,52A7.05,7.05,0,1,0,255,59,7.06,7.06,0,0,0,248,52Z"/><path class="cls-1" d="M54.9,93.13A12,12,0,1,1,67,81.08,12.06,12.06,0,0,1,54.9,93.13Zm0-19.1a7,7,0,1,0,7.05,7A7.05,7.05,0,0,0,54.9,74Z"/><path class="cls-3" d="M95.42,153.25l37.19-9c11.12-2.71,22.46-15,19.76-26.13h0a7.54,7.54,0,0,0-9.1-5.54S112.32,125,73.14,125a70.64,70.64,0,1,0,0,141.27H180.37a14.13,14.13,0,0,0,14.13-14.12h0A14.13,14.13,0,0,0,180.37,238H214a14.12,14.12,0,0,0,14.12-14.13h0A14.12,14.12,0,0,0,214,209.76H227a14.13,14.13,0,0,0,14.12-14.13h0A14.13,14.13,0,0,0,227,181.5H214a14.12,14.12,0,0,0,14.12-14.13h0A14.12,14.12,0,0,0,214,153.25H95.55"/><path class="cls-1" d="M180.37,268.76H73.14a73.14,73.14,0,1,1,0-146.27,207.68,207.68,0,0,0,69.2-12.26l.34-.11a10,10,0,0,1,12.12,7.38c3,12.5-9.34,26.17-21.6,29.14l-16.9,4.11H214A16.62,16.62,0,0,1,225.83,179H227a16.63,16.63,0,0,1,0,33.26h-1.19A16.62,16.62,0,0,1,214,240.51H192.25a16.62,16.62,0,0,1-11.88,28.25ZM144,115c-2.89,1.14-32.81,12.54-70.87,12.54a68.14,68.14,0,1,0,0,136.27H180.37a11.63,11.63,0,1,0,0-23.25h-51v-5H214a11.63,11.63,0,0,0,0-23.25h-84.6v-5H227A11.63,11.63,0,0,0,227,184H129.36v-5H214a11.63,11.63,0,0,0,0-23.25H95.55v-2l-.72-3,37.19-9c10-2.43,20.23-13.57,17.92-23.11a5,5,0,0,0-2.28-3.11A5,5,0,0,0,144,115Z"/></svg>