<svg id="Capa_1" data-name="Capa 1" xmlns="http://www.w3.org/2000/svg" viewBox="0 0 284.47 311.22"><defs><style>.cls-1{fill:#f7e37c;}.cls-2{fill:#353536;}</style></defs><title>coronavirus</title><path class="cls-1" d="M51.39,266.45c-11.92,3.27-24.66,8.15-32.29,17.34A47.76,47.76,0,0,0,8.56,311.22H284.47a47.76,47.76,0,0,0-10.54-27.43c-7.62-9.19-20.37-14.07-32.28-17.34s-35.5-7.28-35.5-7.28l-59.63,29.72L86.88,259.17S63.3,263.18,51.39,266.45Z"/><path class="cls-2" d="M140.47,225.62a88.31,88.31,0,0,1-88.21-88.21V98.84A87.94,87.94,0,0,1,57.4,69.11l4.71,1.69a82.82,82.82,0,0,0-4.85,28v38.57a83.21,83.21,0,0,0,166.42,0V98.84a83.31,83.31,0,0,0-83.21-83.21v-5a88.31,88.31,0,0,1,88.21,88.21v38.57A88.31,88.31,0,0,1,140.47,225.62Z"/><path class="cls-2" d="M280.94,301.88H0l0-2.51a49.86,49.86,0,0,1,11.11-29C19.74,260,34.4,255,44.68,252.21c5.89-1.62,11.82-2.67,18.11-3.79,6.58-1.17,13.38-2.39,20.69-4.35A22,22,0,0,0,93.63,238a22.8,22.8,0,0,0,6-14.93V209.75l3.74,2.15a83.41,83.41,0,0,0,74.26,0l3.74-2.15v13.37a22.75,22.75,0,0,0,6,14.88,22.07,22.07,0,0,0,10.16,6.08c7.29,1.95,14.09,3.16,20.67,4.34,6.29,1.12,12.22,2.17,18.11,3.79,10.28,2.82,24.94,7.77,33.55,18.15a50,50,0,0,1,11.12,29Zm-275.73-5H275.73A45.74,45.74,0,0,0,266,273.56h0c-7.71-9.3-21.39-13.89-31-16.53-5.67-1.55-11.5-2.59-17.66-3.69-6.69-1.19-13.59-2.42-21.11-4.44a27,27,0,0,1-12.49-7.47,27.92,27.92,0,0,1-7.34-18.26v-5.08a89.2,89.2,0,0,1-71.74,0v5a27.88,27.88,0,0,1-7.34,18.31A27.07,27.07,0,0,1,84.8,248.9c-7.54,2-14.45,3.25-21.13,4.44-6.17,1.1-12,2.14-17.67,3.69-9.62,2.64-23.31,7.23-31,16.53A45.54,45.54,0,0,0,5.21,296.88Z"/><path class="cls-2" d="M57.26,140H44.92a21.52,21.52,0,0,1,0-43H57.26ZM44.92,102a16.52,16.52,0,0,0,0,33h7.34V102Z"/><path class="cls-2" d="M236,140H223.68V97H236a21.52,21.52,0,1,1,0,43Zm-7.35-5H236a16.52,16.52,0,1,0,0-33h-7.35Z"/><circle class="cls-2" cx="106.96" cy="123.13" r="9.47"/><circle class="cls-2" cx="173.71" cy="123.13" r="9.47"/><polygon class="cls-2" points="140.47 279.85 80.76 250.09 82.99 245.61 140.47 274.26 197.95 245.61 200.18 250.09 140.47 279.85"/><path class="cls-2" d="M140.5,225.62c-10,0-35.65-2.24-58.16-21.87-23.25-20.27-28.6-46.27-29.83-56.51l-.33-2.8H228.47l-.34,2.8c-1.32,11.18-6.2,32.71-24,51.24C181,222.57,151.92,225.49,140.5,225.62ZM57.87,149.44c1.75,11,7.7,33.05,27.76,50.55,21.23,18.51,45.43,20.6,54.85,20.63,8.38-.1,37.58-2.24,60-25.61a84.5,84.5,0,0,0,22.27-45.57Z"/><path class="cls-2" d="M228.43,104.94l-3.1-.42c-3.28-.42-8.23-1.06-15.6-8.1-9.43-9-12.58-16.74-15.45-25.16L199,69.64c2.75,8.07,5.55,14.9,14.18,23.17,4.7,4.49,8,5.85,10.59,6.4A87.88,87.88,0,0,0,219,71.26l4.73-1.61c6.17,18.1,5,32.1,4.95,32.69Z"/><rect class="cls-2" x="63.44" y="67.95" width="135.81" height="5"/><path class="cls-2" d="M65.39,73c-20-1-36.37-17.45-36.45-36.57C28.87,20,40.42,5.4,57,.79L59.86,0l.31,2.94a8.75,8.75,0,0,0,2.12,4.9,9.55,9.55,0,0,0,7.49,2.8h70.69c1.12,0,29.74-.86,53.44,18a94.79,94.79,0,0,1,29.82,41L219,71.23h0a91.55,91.55,0,0,0-28.17-38.65c-22.28-17.76-50-17-50.25-16.95H70.08c-1.41.1-7.32.2-11.51-4.45a13.49,13.49,0,0,1-2.74-4.77c-13.07,4.71-21.95,16.69-21.89,30C34,52.87,48.24,67.05,65.65,68Z"/><rect class="cls-2" x="174.64" y="277.93" width="48.72" height="5"/><rect class="cls-2" x="137.97" y="277.06" width="5" height="22.33"/></svg>