<svg id="Capa_1" data-name="Capa 1" xmlns="http://www.w3.org/2000/svg" viewBox="0 0 297.71 341.63"><defs><style>.cls-1{fill:#353536;}.cls-2{fill:#f7e37c;}.cls-3{fill:#fff;}</style></defs><title>coronavirus</title><path class="cls-1" d="M56.1,180A73.08,73.08,0,0,1,59.55,66.62,207.36,207.36,0,0,0,107,14.81l.21-.3A10,10,0,0,1,121.35,13c10,8.07,8.5,26.44.57,36.27L99.2,77.43a70.78,70.78,0,0,1,13.13,23.36,71.86,71.86,0,0,1,2.35,36l-4.92-.94a66.67,66.67,0,0,0-2.17-33.49A65.77,65.77,0,0,0,94.47,79.61l-1.8-2L118,46.13c6.46-8,7.81-23.07.18-29.23a5,5,0,0,0-3.7-1.09,5,5,0,0,0-3.28,1.72c-1.6,2.67-18.42,29.92-48.64,53.06a68,68,0,0,0-12.67,95.52,68.88,68.88,0,0,0,9.46,10.06Z"/><path class="cls-1" d="M104,197.82a73.49,73.49,0,0,1-14.81-1.51l1-4.9a68.11,68.11,0,0,0,55.22-12.63l85.13-65.2a11.63,11.63,0,0,0-14.13-18.47l-40.5,31-3-4,67.16-51.44a11.63,11.63,0,0,0-14.14-18.46L158.77,103.7l-3-4,77.53-59.38a11.63,11.63,0,0,0-14.14-18.46L141.59,81.27l-3-4,77.53-59.38a16.63,16.63,0,0,1,20.22,26.4l-.93.71a16.63,16.63,0,0,1,7.74,29.66l-17.23,13.2a16.62,16.62,0,0,1,7.74,29.65l-85.13,65.21A73.11,73.11,0,0,1,104,197.82Z"/><path class="cls-1" d="M141.59,81.27l-3-4,67.16-51.44A11.63,11.63,0,1,0,191.57,7.4l-94,72-3-4,94-72a16.63,16.63,0,1,1,20.22,26.4Z"/><path class="cls-1" d="M141.87,82.61c-4-4.71-8.33-9.3-12.78-13.63l3.49-3.58c4.55,4.44,9,9.13,13.09,14Z"/><circle class="cls-2" cx="43.48" cy="246.06" r="19.1"/><path class="cls-1" d="M35.22,275.37a21.6,21.6,0,1,1,21.6-21.6A21.62,21.62,0,0,1,35.22,275.37Zm0-38.2a16.6,16.6,0,1,0,16.6,16.6A16.61,16.61,0,0,0,35.22,237.17Z"/><circle class="cls-2" cx="288.16" cy="113" r="9.55"/><path class="cls-1" d="M279.9,132.77A12.06,12.06,0,1,1,292,120.71,12.06,12.06,0,0,1,279.9,132.77Zm0-19.11a7.06,7.06,0,1,0,7.05,7A7.06,7.06,0,0,0,279.9,113.66Z"/><path class="cls-2" d="M140.56,89.23a38.09,38.09,0,0,0-55.78,43.22c.18.63.37,1.25.58,1.86a38.09,38.09,0,0,0,26.39,69.31l.09.37a38.09,38.09,0,0,0,46.95,26.4c.91-.25,1.8-.55,2.67-.86a38.09,38.09,0,0,0,66.79-33.61,38.09,38.09,0,0,0-19-73.75,38.09,38.09,0,1,0-68.67-32.94Z"/><path class="cls-1" d="M179.73,252.17a40.42,40.42,0,0,1-30.88-14.34l-1.15.34A40.59,40.59,0,0,1,98.17,211.7a40.59,40.59,0,0,1-27.51-73,1.94,1.94,0,0,0,0-.2,40.58,40.58,0,0,1,57.1-47.31,40.58,40.58,0,0,1,73.88,33.1A40.59,40.59,0,0,1,219.48,203a40.64,40.64,0,0,1-39.75,49.2Zm-29.17-20.24,1.11,1.44A35.59,35.59,0,0,0,214.08,202l-.68-2.41,2.41-.68A35.58,35.58,0,0,0,198,130l-5.23,1.24,2.42-4.8a35.59,35.59,0,1,0-64.16-30.78l-1.15,2.5-2.38-1.38a35.59,35.59,0,0,0-52.12,40.39q.26.89.54,1.74l.6,1.8L75,141.76a35.59,35.59,0,0,0,24.65,64.76l2.17-.3.67,2.46a35.64,35.64,0,0,0,43.87,24.68c.75-.21,1.54-.47,2.5-.82Z"/><path class="cls-3" d="M110.24,290,86.17,214.86a7.56,7.56,0,0,1,4.9-9.5h0c10.93-3.5,24.05,7,27.56,17.89l11.71,36.57L94.1,146.68a14.17,14.17,0,0,1,9.17-17.82h0A14.18,14.18,0,0,1,121.1,138L147,218.86l-29.89-93.3a14.17,14.17,0,0,1,9.17-17.82h0a14.17,14.17,0,0,1,17.82,9.17L174,210.21l-25.89-80.82a14.17,14.17,0,0,1,9.17-17.82h0a14.17,14.17,0,0,1,17.83,9.17L201,201.57l-15.62-48.74A14.18,14.18,0,0,1,194.54,135h0a14.17,14.17,0,0,1,17.82,9.17l32.82,102.46a70.87,70.87,0,1,1-135,43.24"/><path class="cls-1" d="M177.74,341.63a73.52,73.52,0,0,1-69.88-50.87L83.79,215.62A10.06,10.06,0,0,1,90.3,203c7.08-2.27,14.91.55,21,5.65l-19.6-61.19a16.67,16.67,0,0,1,23.37-20l-.37-1.15a16.67,16.67,0,1,1,31.75-10.17l.37,1.14A16.67,16.67,0,0,1,177.47,120l6.65,20.76a16.67,16.67,0,0,1,30.62,2.68l32.82,102.46a73.38,73.38,0,0,1-69.82,95.75Zm-65.15-52.5A68.37,68.37,0,0,0,242.8,247.4L210,144.94a11.67,11.67,0,0,0-22.27,7l15.65,48.85-4.76,1.53L183,153.59c0-.05,0-.09,0-.14L172.71,121.5a11.68,11.68,0,0,0-22.27,7l25.92,80.93L171.6,211l-25.89-80.83,0-.12-4-12.36a11.67,11.67,0,0,0-22.23,7.12l29.89,93.31-4.76,1.52-25.9-80.82a11.67,11.67,0,0,0-22.23,7.12l36.24,113.14L128,260.58,116.25,224c-3.15-9.83-15-19.28-24.42-16.27a5.06,5.06,0,0,0-3.28,6.36Z"/><circle class="cls-2" cx="20.31" cy="181.51" r="9.55"/><path class="cls-1" d="M12.05,201.27A12.05,12.05,0,1,1,24.1,189.22,12.07,12.07,0,0,1,12.05,201.27Zm0-19.1a7.05,7.05,0,1,0,7.05,7.05A7.05,7.05,0,0,0,12.05,182.17Z"/></svg>