<svg id="Capa_1" data-name="Capa 1" xmlns="http://www.w3.org/2000/svg" viewBox="0 0 111.81 281.66"><defs><style>.cls-1{fill:#f7e37c;}.cls-2{fill:#353536;}</style></defs><title>coronavirus</title><path class="cls-1" d="M59,185.58V66.35a7.77,7.77,0,0,0-15.53,0V185.58a33.14,33.14,0,1,0,15.53,0Z"/><path class="cls-2" d="M50.77,281.66a50.77,50.77,0,0,1-22.32-96.37v-163a22.32,22.32,0,0,1,44.64,0v163a50.77,50.77,0,0,1-22.32,96.37ZM50.77,5A17.34,17.34,0,0,0,33.45,22.32V188.5l-1.47.66a45.77,45.77,0,1,0,37.59,0l-1.48-.66V22.32A17.34,17.34,0,0,0,50.77,5Z"/><rect class="cls-2" x="84.37" y="24.07" width="27.44" height="5"/><rect class="cls-2" x="84.37" y="48.92" width="14.68" height="5"/><rect class="cls-2" x="84.37" y="73.76" width="14.68" height="5"/><rect class="cls-2" x="84.37" y="123.45" width="14.68" height="5"/><rect class="cls-2" x="84.37" y="148.3" width="14.68" height="5"/><rect class="cls-2" x="84.37" y="173.14" width="27.44" height="5"/><rect class="cls-2" x="84.37" y="98.61" width="27.44" height="5"/><path class="cls-2" d="M51.23,267.17A35.64,35.64,0,0,1,41,197.41V80.09a10.27,10.27,0,0,1,20.53,0V197.41a35.64,35.64,0,0,1-10.27,69.76Zm0-192.34A5.27,5.27,0,0,0,46,80.09V201.3l-1.92.46a30.64,30.64,0,1,0,14.36,0l-1.91-.46V80.09A5.27,5.27,0,0,0,51.23,74.83Z"/></svg>