<svg id="Capa_1" data-name="Capa 1" xmlns="http://www.w3.org/2000/svg" viewBox="0 0 297.63 225.71"><defs><style>.cls-1{fill:#f7e37c;}.cls-2,.cls-4{fill:none;}.cls-2,.cls-3,.cls-4{stroke:#353536;stroke-miterlimit:10;stroke-width:5px;}.cls-3{fill:#fff;}.cls-4{stroke-dasharray:10.65 10.65;}</style></defs><title>coronavirus</title><rect class="cls-1" x="250.8" y="81.41" width="46.83" height="18.34"/><line class="cls-2" x1="202.63" y1="160.32" x2="75.53" y2="160.32"/><line class="cls-2" x1="75.53" y1="2.5" x2="202.63" y2="2.5"/><path class="cls-2" d="M202.63,2.5c27.14,0,49.14,35.33,49.14,78.91s-22,78.91-49.14,78.91"/><path class="cls-2" d="M26.73,72.24C29.56,33,50.33,2.5,75.53,2.5c27.14,0,49.14,35.33,49.14,78.91s-22,78.91-49.14,78.91c-25.21,0-46-30.49-48.81-69.76"/><path class="cls-2" d="M54.9,72.24C57.39,57.7,65.69,47,75.53,47c11.83,0,21.41,15.39,21.41,34.38s-9.58,34.38-21.41,34.38c-9.84,0-18.14-10.67-20.63-25.2"/><polyline class="cls-3" points="251.77 81.41 251.77 223.21 124.67 223.21 124.67 81.41"/><line class="cls-2" x1="124.67" y1="81.41" x2="129.67" y2="81.41"/><line class="cls-4" x1="140.31" y1="81.41" x2="241.44" y2="81.41"/><line class="cls-2" x1="246.77" y1="81.41" x2="251.77" y2="81.41"/><polygon class="cls-1" points="91.13 99.76 11.17 99.76 11.17 81.41 95.98 81.41 91.13 99.76"/><path class="cls-2" d="M96,90.58H2.5V72.24H96a44.28,44.28,0,0,1,0,18.34Z"/><rect class="cls-2" x="251.77" y="72.24" width="37.19" height="18.34"/></svg>