<svg id="Capa_1" data-name="Capa 1" xmlns="http://www.w3.org/2000/svg" viewBox="0 0 294.89 241.18"><defs><style>.cls-1{fill:#353536;}.cls-2{fill:#f7e37c;}.cls-3{fill:#fff;}</style></defs><title>coronavirus</title><path class="cls-1" d="M220.66,140a71.72,71.72,0,0,1-20-30,70.55,70.55,0,0,1-3.77-26.53l-23.06-5.6L175,73l27.14,6.59-.19,2.73a65.84,65.84,0,0,0,3.43,26.05A66.8,66.8,0,0,0,224,136.25Z"/><path class="cls-1" d="M221.75,197H114.51a16.62,16.62,0,0,1-11.87-28.25H80.93A16.62,16.62,0,0,1,69.05,140.5H67.87a16.63,16.63,0,1,1,0-33.25h1.18A16.62,16.62,0,0,1,80.93,79H199.34v5H80.93a11.63,11.63,0,0,0,0,23.26h84.6v5H67.87a11.63,11.63,0,1,0,0,23.25h97.66v5H80.93a11.63,11.63,0,0,0,0,23.26h84.6v5h-51a11.63,11.63,0,0,0,0,23.25H221.75a68.14,68.14,0,1,0,0-136.27c-38.06,0-68-11.41-70.87-12.55A5,5,0,0,0,145,46.93c-1,4.16.47,8.08,1.89,10.64L142.47,60c-2.66-4.78-3.48-9.71-2.38-14.24a10,10,0,0,1,12.12-7.38l.34.11a207.68,207.68,0,0,0,69.2,12.26,73.14,73.14,0,1,1,0,146.27Z"/><path class="cls-1" d="M169.1,183.15a210.58,210.58,0,0,1-6.07-89l4.94.71a205.79,205.79,0,0,0,5.93,86.87Z"/><circle class="cls-2" cx="94.58" cy="19.1" r="19.1"/><path class="cls-1" d="M86.32,48.41a21.6,21.6,0,1,1,21.6-21.6A21.62,21.62,0,0,1,86.32,48.41Zm0-38.2a16.6,16.6,0,1,0,16.6,16.6A16.62,16.62,0,0,0,86.32,10.21Z"/><circle class="cls-2" cx="252.72" cy="217.74" r="9.55"/><path class="cls-1" d="M244.46,237.5a12.05,12.05,0,1,1,12-12.05A12.07,12.07,0,0,1,244.46,237.5Zm0-19.1a7,7,0,1,0,7,7A7.05,7.05,0,0,0,244.46,218.4Z"/><circle class="cls-2" cx="20.31" cy="64.46" r="9.55"/><path class="cls-1" d="M12.05,84.22a12,12,0,1,1,12.05-12A12.06,12.06,0,0,1,12.05,84.22Zm0-19.1a7,7,0,1,0,7.05,7A7.05,7.05,0,0,0,12.05,65.12Z"/><path class="cls-2" d="M232.84,150.87a38.08,38.08,0,0,0-22.11-67c-.65,0-1.3-.07-1.95-.08a38.08,38.08,0,0,0-74.14,1.72c-.13,0-.25,0-.38,0a38.09,38.09,0,0,0-40.57,35.44c-.06.94-.08,1.87-.07,2.8A38.09,38.09,0,0,0,103,197.89a38.09,38.09,0,0,0,75.87,6.7,38.09,38.09,0,1,0,54-53.72Z"/><path class="cls-1" d="M132.34,241.18c-.92,0-1.86,0-2.8-.09a40.6,40.6,0,0,1-37.85-40.81,40.59,40.59,0,0,1-9.26-78.21q0-.61.06-1.2A40.64,40.64,0,0,1,123,83l1,0a40.59,40.59,0,0,1,78-1.54h.21a40.59,40.59,0,0,1,25.53,69.62A40.59,40.59,0,0,1,197.67,219q-1.36,0-2.76-.09a40.59,40.59,0,0,1-23.08-9.17A40.44,40.44,0,0,1,132.34,241.18ZM123,88a35.65,35.65,0,0,0-35.49,33.2c0,.78-.07,1.61-.06,2.62v1.82l-1.73.57a35.59,35.59,0,0,0,8.75,69.31l2.5.17-.17,2.49a35.59,35.59,0,0,0,70.88,6.26l.58-5.34,3.71,3.88a35.59,35.59,0,1,0,50.45-50.19l-2-1.92,2.1-1.78a35.58,35.58,0,0,0-20.66-62.61c-.61,0-1.22-.07-1.82-.08l-1.9,0-.48-1.83a35.59,35.59,0,0,0-69.28,1.61l-.45,2.15-2.54-.21C124.57,88,123.76,88,123,88Z"/><path class="cls-3" d="M94.75,221H145.2c25.52,0,30.55-24.17,30.55-28.35l-24.43,0,4.44,0h42.4a14.17,14.17,0,0,0,14.18-14.17h0a14.17,14.17,0,0,0-14.18-14.17h.1a14.18,14.18,0,0,0,14.18-14.18h0A14.18,14.18,0,0,0,198.26,136h-10.1a14.17,14.17,0,0,0,14.18-14.17h0a14.18,14.18,0,0,0-14.18-14.18H164.47a14.17,14.17,0,0,0,14.17-14.17h0a14.17,14.17,0,0,0-14.17-14.17H94.88a70.87,70.87,0,1,0,0,141.73"/><path class="cls-1" d="M145.2,223.49H94.75a73.37,73.37,0,0,1,.13-146.73h69.59a16.66,16.66,0,0,1,11.89,28.34h11.8A16.67,16.67,0,0,1,200,133.54a16.67,16.67,0,0,1,7,30.79,16.67,16.67,0,0,1-8.83,30.81H178C176.64,203.3,169.36,223.49,145.2,223.49Zm-50.32-5H145.2c20.71,0,26.28-16.85,27.64-23.34H151.32v-5l24.41,0h22.43a11.67,11.67,0,1,0,0-23.34H151.29v-5h47a11.68,11.68,0,1,0,0-23.35h-47v-5h36.87a11.68,11.68,0,1,0,0-23.35H151.29v-5h13.18a11.67,11.67,0,0,0,0-23.34H94.88a68.37,68.37,0,1,0,0,136.73Z"/></svg>