<svg id="Capa_1" data-name="Capa 1" xmlns="http://www.w3.org/2000/svg" viewBox="0 0 200.08 275.7"><defs><style>.cls-1{fill:#f7e37c;}.cls-2{fill:#353536;}.cls-3{fill:#fff;}</style></defs><title>coronavirus</title><path class="cls-1" d="M122,122.68l1.46-31.5c.44-9.43,8.6-20.53,18-20.1h0a6.21,6.21,0,0,1,5.92,6.49,171.35,171.35,0,0,0,1,58.69,58,58,0,0,1-8.11,42.56l12.49,47.86L63.17,244.1l-6-49.52a58,58,0,0,1-23.07-36.09L17.22,71.74a11.64,11.64,0,0,1,9.2-13.66h0a11.64,11.64,0,0,1,13.65,9.21l8,41.27L34.79,40.12A11.65,11.65,0,0,1,44,26.47h0a11.64,11.64,0,0,1,13.65,9.21L71,104.11l-15.37-79A11.65,11.65,0,0,1,64.8,11.46h0a11.64,11.64,0,0,1,13.65,9.21l15.37,79L80.51,31.23a11.64,11.64,0,0,1,9.2-13.65h0a11.63,11.63,0,0,1,13.65,9.2L122,122.58"/><path class="cls-2" d="M46.51,238.32l-6.2-51.11a60.43,60.43,0,0,1-23.17-37L.26,63.47a14.14,14.14,0,0,1,20.8-15L17.84,31.85a14.14,14.14,0,0,1,20.8-15A14.15,14.15,0,0,1,49.82.26,14.17,14.17,0,0,1,66.4,11.42a14.15,14.15,0,0,1,24.92,6.14L106,93l.49-10.64a26.6,26.6,0,0,1,6.23-15.24c4.12-4.91,9.24-7.49,14.41-7.24a8.72,8.72,0,0,1,8.3,9.1l0,.36a170.25,170.25,0,0,0,1,57.74,60.45,60.45,0,0,1-7.87,43.45l12.9,49.39ZM14.15,51.63a8.72,8.72,0,0,0-1.75.17A9.15,9.15,0,0,0,5.17,62.51L22,149.27a55.55,55.55,0,0,0,22.08,34.54l.89.64,5.82,47.94L135.17,216l-12.09-46.34.59-.93A55.42,55.42,0,0,0,131.42,128a172.91,172.91,0,0,1-1-59.44,3.73,3.73,0,0,0-1-2.52,3.67,3.67,0,0,0-2.57-1.2h-.42c-7.68,0-14.62,9.59-15,17.72L110,114.06l-2.94-.14-2,.39L86.41,18.52a9.14,9.14,0,0,0-18,3.38L81.77,90.45l-4.91,1L63.55,23s0-.08,0-.13l-2-10.43a9.14,9.14,0,1,0-18,3.49l2,10.51a.11.11,0,0,1,0,.05L58.91,94.89l-4.9,1L40.69,27.36A9.14,9.14,0,0,0,22.75,30.9L36.06,99.34l-4.91,1L23.12,59A9.15,9.15,0,0,0,14.15,51.63Z"/><rect class="cls-2" x="44.39" y="206.35" width="89.58" height="5" transform="translate(-38.25 20.88) rotate(-11.01)"/><path class="cls-3" d="M104.43,165.25,97,134.6c-2.23-9.17-12.36-18.51-21.53-16.29h0a6.21,6.21,0,0,0-4.57,7.5,171.43,171.43,0,0,1,10.26,57.8,58,58,0,0,0,16.08,40.23L94.1,273.2h91.27l-3.55-49.76a58,58,0,0,0,15.76-39.83V95.23a11.65,11.65,0,0,0-11.65-11.64h0a11.64,11.64,0,0,0-11.64,11.64V67.55a11.64,11.64,0,0,0-11.64-11.64h0A11.64,11.64,0,0,0,151,67.55V56.79a11.65,11.65,0,0,0-11.65-11.64h0a11.64,11.64,0,0,0-11.64,11.64V67.55a11.64,11.64,0,0,0-11.64-11.64h0a11.65,11.65,0,0,0-11.65,11.64v97.59"/><path class="cls-2" d="M188.06,275.7H91.44l3.22-50.94a60.49,60.49,0,0,1-16-41.15,170.63,170.63,0,0,0-10.08-56.87l-.11-.34a8.73,8.73,0,0,1,6.41-10.52c5-1.21,10.55.33,15.53,4.36a26.68,26.68,0,0,1,9,13.77l2.51,10.35V67.55a14.14,14.14,0,0,1,23.29-10.78,14.15,14.15,0,0,1,28.29,0,14.13,14.13,0,0,1,23.28,10.78v16.9a14.14,14.14,0,0,1,23.29,10.78v88.38a60.44,60.44,0,0,1-15.69,40.73Zm-91.3-5h85.93l-3.44-48.17.75-.8a55.52,55.52,0,0,0,15.08-38.12V95.23a9.15,9.15,0,0,0-18.29,0v42h-5V67.55a9.14,9.14,0,1,0-18.28,0v69.72h-5V56.79a9.15,9.15,0,0,0-18.29,0v80.48h-5V67.55a9.15,9.15,0,0,0-18.29,0v97.59h-2.06l-2.87.7-7.44-30.65a21.47,21.47,0,0,0-7.3-11.06c-3.69-3-7.78-4.22-11.21-3.39a3.72,3.72,0,0,0-2.76,4.33,173.12,173.12,0,0,1,10.36,58.54A55.45,55.45,0,0,0,99,222.11l.75.79Z"/><rect class="cls-2" x="94.78" y="252.61" width="89.58" height="5"/></svg>