<svg id="Capa_1" data-name="Capa 1" xmlns="http://www.w3.org/2000/svg" viewBox="0 0 287.82 318.05"><defs><style>.cls-1{fill:#f7e37c;}.cls-2{fill:#353536;}.cls-3{fill:#fff;}</style></defs><title>coronavirus</title><path class="cls-1" d="M287.82,54.76a54.75,54.75,0,0,0-99-32.19,80.3,80.3,0,0,0-22.87-3.33H129.2A85.64,85.64,0,0,0,55.34,61.46h0C70.16,99.62,160.2,127.12,191,125.39h9.85a19,19,0,0,1,19,19h0a19,19,0,0,1-19,19H191V210a80.41,80.41,0,0,0,43.62-34.78l4-7.61a79.89,79.89,0,0,0,7.48-33.83V107.94A54.79,54.79,0,0,0,287.82,54.76Z"/><path class="cls-1" d="M191,210v0c-.39.13-.76.27-1.15.39Z"/><path class="cls-2" d="M240,122.45l-1.18-4.86a52.27,52.27,0,1,0-55.82-80l-4.14-2.8A57.27,57.27,0,1,1,240,122.45Z"/><rect class="cls-2" x="8.63" y="253.12" width="24.89" height="5" transform="translate(-153.92 68.09) rotate(-38.31)"/><rect class="cls-2" x="29.66" y="266.93" width="24.89" height="5" transform="translate(-204 151.96) rotate(-55.6)"/><rect class="cls-2" x="0.07" y="229.46" width="24.88" height="5" transform="translate(-82.26 19.88) rotate(-20.99)"/><polygon class="cls-2" points="186.8 311.24 99.16 311.24 99.16 267.43 104.16 267.43 104.16 306.24 181.8 306.24 181.8 261.52 186.8 261.52 186.8 311.24"/><path class="cls-3" d="M87.74,315.55h112V273.38H185.27l-84,30A19.28,19.28,0,0,0,90.69,310,18.18,18.18,0,0,0,87.74,315.55Z"/><path class="cls-2" d="M202.25,318.05h-118l1.08-3.28a20.63,20.63,0,0,1,3.35-6.3A21.85,21.85,0,0,1,100.54,301l84.29-30.07h17.42Zm-110.63-5H197.25V275.88H185.7L102,305.75l-.12,0a16.79,16.79,0,0,0-9.2,5.77A15.42,15.42,0,0,0,91.62,313.05Z"/><path class="cls-2" d="M115.32,271.81a67,67,0,0,1-14.3-1.53c-18.7-4.69-31.37-12.1-42.43-24.78l-2.73-3.13,16.29-3.8c2.64-.68,3.41-1.45,3.62-1.85a3,3,0,0,0-.16-2.17c-2.08-6.12-12.7-12.5-31.17-12l-1.6,0-.7-1.44a51.36,51.36,0,0,1-3.24-8,8.31,8.31,0,0,0-3.66-4.64L27,203.62a12.86,12.86,0,0,1-4.54-17.55l9.66-16.45a16,16,0,0,0,2.21-8.11V117a88.31,88.31,0,0,1,88.21-88.2h36.69a82.85,82.85,0,0,1,82.76,82.76v34.28a82.16,82.16,0,0,1-7.71,34.88l-.06.12-4.11,7.72a82.73,82.73,0,0,1-46.16,36.27l-1.49-4.77a77.84,77.84,0,0,0,43.34-34l4-7.49a77.06,77.06,0,0,0,7.22-32.71V111.57a77.84,77.84,0,0,0-77.76-77.76H122.49A83.3,83.3,0,0,0,39.28,117v44.5a21,21,0,0,1-2.89,10.64L26.72,188.6a7.84,7.84,0,0,0,2.77,10.71l8.29,4.9a13.28,13.28,0,0,1,5.89,7.44,44.44,44.44,0,0,0,2.27,5.85h.12c14.72,0,30.62,4.68,34.28,15.44a7.41,7.41,0,0,1-.17,6.16c-1.11,2-3.28,3.42-6.83,4.33l-8.13,1.89c9.75,10.1,20.76,16,37,20.1a59.78,59.78,0,0,0,24.22.32l1.19,4.85A55.28,55.28,0,0,1,115.32,271.81Z"/><path class="cls-2" d="M186.8,261.52h-5V173h12.35a16.52,16.52,0,1,0,0-33h-9.78C153.2,141.65,61.78,114.3,46.29,74.43L51,72.62c14.48,37.28,104,64,133.22,62.34h10a21.52,21.52,0,1,1,0,43h-7.35Z"/><polygon class="cls-2" points="71.53 166.55 53.15 155.33 71.44 141.81 74.41 145.83 62.09 154.93 74.14 162.28 71.53 166.55"/></svg>