<svg id="Capa_1" data-name="Capa 1" xmlns="http://www.w3.org/2000/svg" viewBox="0 0 233.7 297.25"><defs><style>.cls-1{fill:#f7e37c;}.cls-2{fill:#353536;}.cls-3{fill:#fff;}</style></defs><title>coronavirus</title><rect class="cls-1" x="4.85" y="178.55" width="228.85" height="100.26"/><path class="cls-2" d="M120,110.41A36.83,36.83,0,0,1,93.84,99.26l3.54-3.53a31.15,31.15,0,0,0,45.14,0l3.53,3.53A36.83,36.83,0,0,1,120,110.41Z"/><path class="cls-2" d="M119.77,89.86a35.33,35.33,0,0,1-35.3-35.3V39.8a35.33,35.33,0,0,1,2-11.9l4.71,1.69A30.2,30.2,0,0,0,89.47,39.8V54.56a30.3,30.3,0,1,0,60.6,0V39.8a30.34,30.34,0,0,0-30.3-30.3v-5a35.35,35.35,0,0,1,35.3,35.3V54.56A35.34,35.34,0,0,1,119.77,89.86Z"/><path class="cls-2" d="M89.47,57.1H82.24a8.82,8.82,0,0,1-8.82-8.82V46.36a8.83,8.83,0,0,1,8.82-8.82h7.23ZM82.24,42.54a3.83,3.83,0,0,0-3.82,3.82v1.92a3.82,3.82,0,0,0,3.82,3.82h2.23V42.54Z"/><path class="cls-2" d="M157.3,57.1h-7.23V37.54h7.23a8.83,8.83,0,0,1,8.81,8.82v1.92A8.82,8.82,0,0,1,157.3,57.1Zm-2.23-5h2.23a3.82,3.82,0,0,0,3.81-3.82V46.36a3.82,3.82,0,0,0-3.81-3.82h-2.23Z"/><path class="cls-2" d="M154.82,43.88l-2.77-.37c-1.77-.23-3.9-.71-6.84-3.52-3.83-3.67-6.08-8.65-7.29-12.19l4.73-1.62c.85,2.47,2.75,7.07,6,10.2A12.38,12.38,0,0,0,150,37.5a33.37,33.37,0,0,0-1.64-7.76l4.73-1.61a35,35,0,0,1,2,13.15Z"/><rect class="cls-2" x="90.29" y="26.44" width="51.97" height="5"/><path class="cls-2" d="M91,31.43C82.49,31,75.58,24,75.54,15.91A15.88,15.88,0,0,1,87.41.79L90.26,0l.31,2.94a1.78,1.78,0,0,0,.42,1,2.11,2.11,0,0,0,1.59.57h27.19c.4,0,11.9-.35,21.41,7.24A38,38,0,0,1,153.1,28.16l-4.75,1.55,2.37-.77-2.37.78a33.58,33.58,0,0,0-10.27-14.06C130,9.2,120,9.5,119.86,9.5h-27a7.06,7.06,0,0,1-5.6-2.21,6.06,6.06,0,0,1-.65-.86,10.88,10.88,0,0,0-6.09,9.45c0,5.52,4.81,10.25,10.67,10.56Z"/><rect class="cls-2" x="92.2" y="194.49" width="5" height="100.26"/><circle class="cls-3" cx="94.7" cy="244.62" r="7.96"/><path class="cls-2" d="M94.7,255.08a10.46,10.46,0,1,1,10.46-10.46A10.47,10.47,0,0,1,94.7,255.08Zm0-15.92a5.46,5.46,0,1,0,5.46,5.46A5.47,5.47,0,0,0,94.7,239.16Z"/><rect class="cls-2" x="132.97" y="194.49" width="5" height="100.26"/><circle class="cls-3" cx="135.47" cy="244.62" r="7.96"/><path class="cls-2" d="M135.47,255.08a10.46,10.46,0,1,1,10.46-10.46A10.47,10.47,0,0,1,135.47,255.08Zm0-15.92a5.46,5.46,0,1,0,5.46,5.46A5.47,5.47,0,0,0,135.47,239.16Z"/><rect class="cls-2" x="173.74" y="194.49" width="5" height="100.26"/><circle class="cls-3" cx="176.24" cy="244.62" r="7.96"/><path class="cls-2" d="M176.24,255.08a10.46,10.46,0,1,1,10.46-10.46A10.47,10.47,0,0,1,176.24,255.08Zm0-15.92a5.46,5.46,0,1,0,5.46,5.46A5.47,5.47,0,0,0,176.24,239.16Z"/><rect class="cls-2" x="214.51" y="194.49" width="5" height="100.26"/><circle class="cls-3" cx="217.01" cy="244.62" r="7.96"/><path class="cls-2" d="M217,255.08a10.46,10.46,0,1,1,10.46-10.46A10.47,10.47,0,0,1,217,255.08Zm0-15.92a5.46,5.46,0,1,0,5.46,5.46A5.47,5.47,0,0,0,217,239.16Z"/><rect class="cls-2" x="51.43" y="194.49" width="5" height="100.26"/><circle class="cls-3" cx="53.93" cy="244.62" r="7.96"/><path class="cls-2" d="M53.93,255.08a10.46,10.46,0,1,1,10.46-10.46A10.47,10.47,0,0,1,53.93,255.08Zm0-15.92a5.46,5.46,0,1,0,5.46,5.46A5.47,5.47,0,0,0,53.93,239.16Z"/><rect class="cls-2" x="10.66" y="194.49" width="5" height="100.26"/><circle class="cls-3" cx="13.16" cy="244.62" r="7.96"/><path class="cls-2" d="M13.16,255.08a10.46,10.46,0,1,1,10.46-10.46A10.47,10.47,0,0,1,13.16,255.08Zm0-15.92a5.46,5.46,0,1,0,5.46,5.46A5.47,5.47,0,0,0,13.16,239.16Z"/><rect class="cls-2" y="193.58" width="230.17" height="5"/><rect class="cls-2" y="292.25" width="230.17" height="5"/><polygon class="cls-2" points="158.06 198.59 81.48 198.59 81.48 136.04 86.48 136.04 86.48 193.59 153.06 193.59 153.06 140.49 158.06 140.49 158.06 198.59"/><path class="cls-2" d="M171.76,151.74c0-27.7-3.15-41.73-5.14-44.07s-5.64-4.34-11.11-5.84c-2.1-.58-4.3-1-6.62-1.38-2.59-.46-5.27-.94-8.21-1.73a11.85,11.85,0,0,1-5.5-3.29A12.28,12.28,0,0,1,132,87.72a35.82,35.82,0,0,1-24.39,0,12.16,12.16,0,0,1-3.22,7.71,11.78,11.78,0,0,1-5.48,3.28c-3,.8-5.64,1.28-8.23,1.74-2.32.41-4.52.8-6.62,1.38-3.48,1-8.42,2.6-11.09,5.82a27.87,27.87,0,0,0-5,9.53l-9.46,31.23L53.71,147l9.42-31.14a33,33,0,0,1,5.95-11.36c3.58-4.31,9.49-6.32,13.62-7.45,2.32-.64,4.63-1.05,7.07-1.49s5-.9,7.79-1.63A6.87,6.87,0,0,0,100.72,92a7.16,7.16,0,0,0,1.86-4.69V79.58l3.75,2.15a29.92,29.92,0,0,0,13.44,3.13,29.61,29.61,0,0,0,13.44-3.13L137,79.58v7.78A7.16,7.16,0,0,0,138.82,92,6.92,6.92,0,0,0,142,93.9c2.72.72,5.29,1.18,7.78,1.62s4.74.85,7.06,1.49c4.09,1.12,9.94,3.11,13.6,7.43,6,7.09,6.33,40.65,6.33,47.3Z"/><path class="cls-3" d="M63.58,138.08c-6.95,2.92-8.84,9.79-5.66,14.91,2.93,4.71,10,5.12,15.17,3.18,11.24-5.37,25.8-13.45,33-20.92,3.91-4,10.21-21.86,1.64-23.36-5.72-1-8.63,11.52-11.25,13.51-4,3.07-13.91,8.76-21.23,9.57A35.47,35.47,0,0,0,63.58,138.08Z"/><path class="cls-2" d="M67,159.77c-4.49,0-8.86-1.62-11.24-5.46a12.17,12.17,0,0,1-1.3-10.13,13.74,13.74,0,0,1,8-8.37A38.75,38.75,0,0,1,75,132.48c6.41-.7,15.73-5.83,20-9.07a21.74,21.74,0,0,0,2.14-3.84c2.29-4.69,5.44-11.12,11-10.14a7.22,7.22,0,0,1,5.78,5.14c2.23,6.87-2.73,19-6.06,22.42-8.63,8.92-26.48,18-33.76,21.43l-.2.09A20,20,0,0,1,67,159.77Zm40.11-45.43c-1.89,0-4.14,4.62-5.51,7.42-1.25,2.57-2.24,4.6-3.61,5.63-4.52,3.44-14.63,9.2-22.47,10.07a33.63,33.63,0,0,0-10.82,2.84l-.19.08a8.89,8.89,0,0,0-5.29,5.32,7.06,7.06,0,0,0,.79,6c2.1,3.38,7.76,3.77,12.06,2.19,7.1-3.39,24.19-12.06,32.22-20.35,2.47-2.54,6.44-12.62,4.89-17.4a2.18,2.18,0,0,0-1.88-1.75Z"/><path class="cls-2" d="M110.07,53.47a3.28,3.28,0,0,0-6.26,0L99,52a8.27,8.27,0,0,1,15.8,0Z"/><path class="cls-2" d="M135.62,53.47a3.28,3.28,0,0,0-6.26,0L124.58,52a8.28,8.28,0,0,1,15.81,0Z"/><path class="cls-3" d="M167.26,143.6c7,2.92,8.84,9.79,5.66,14.91-2.93,4.71-10,5.11-15.17,3.18-11.24-5.37-25.8-13.45-33-20.92-3.91-4-10.21-21.86-1.64-23.36,5.72-1,8.63,11.52,11.25,13.51,4,3.07,13.91,8.76,21.23,9.57A35.47,35.47,0,0,1,167.26,143.6Z"/><path class="cls-2" d="M163.8,165.28a19.72,19.72,0,0,1-6.92-1.25l-.2-.09c-7.28-3.47-25.13-12.52-33.76-21.43-3.33-3.44-8.29-15.55-6.06-22.43a7.2,7.2,0,0,1,5.78-5.13c5.63-1,8.76,5.45,11,10.14a21.54,21.54,0,0,0,2.15,3.85c4.26,3.23,13.58,8.36,20,9.06a38.75,38.75,0,0,1,12.48,3.33,13.78,13.78,0,0,1,8,8.37A12.21,12.21,0,0,1,175,159.83C172.66,163.67,168.29,165.28,163.8,165.28Zm-5.07-5.9c4.31,1.57,10,1.19,12.06-2.19a7.07,7.07,0,0,0,.79-6,8.89,8.89,0,0,0-5.29-5.32l-.19-.09A33.87,33.87,0,0,0,155.28,143c-7.84-.86-17.95-6.63-22.47-10.06-1.37-1-2.36-3.06-3.61-5.63-1.37-2.8-3.62-7.42-5.51-7.42a.58.58,0,0,0-.19,0,2.18,2.18,0,0,0-1.88,1.75c-1.55,4.78,2.42,14.86,4.89,17.4C134.54,147.32,151.63,156,158.73,159.38Z"/><rect class="cls-2" x="51.43" y="77.31" width="5" height="18.36" transform="translate(-46.98 72.17) rotate(-49.98)"/><rect class="cls-2" x="44.6" y="94.57" width="5" height="18.36" transform="matrix(0.39, -0.92, 0.92, 0.39, -66.79, 107.13)"/><rect class="cls-2" x="67.26" y="67.59" width="5" height="18.36" transform="translate(-30.41 49.81) rotate(-32.68)"/></svg>