<svg id="Capa_1" data-name="Capa 1" xmlns="http://www.w3.org/2000/svg" viewBox="0 0 286.51 281.49"><defs><style>.cls-1{fill:#f7e37c;}.cls-2{fill:#353536;}.cls-3{fill:#fff;}</style></defs><title>coronavirus</title><path class="cls-1" d="M62,107.31,81.88,74.63c6-9.78,5.27-26.49-4.5-32.45h0A7.53,7.53,0,0,0,67,44.7s-13.09,30.68-40.8,58.39A70.64,70.64,0,1,0,126.13,203L202,127.15a14.12,14.12,0,0,0,0-20h0a14.13,14.13,0,0,0-20,0l-36.07,36.07,59.81-59.81a14.12,14.12,0,0,0,0-20h0a14.11,14.11,0,0,0-20,0l-59.82,59.82,69-69.06a14.12,14.12,0,0,0,0-20h0a14.14,14.14,0,0,0-20,0l-69,69.06,59.82-59.82a14.14,14.14,0,0,0,0-20h0a14.12,14.12,0,0,0-20,0L62.06,107.22"/><path class="cls-2" d="M73.18,209.27A73.07,73.07,0,0,1,21.47,84.46a207.6,207.6,0,0,0,40.26-57.6l.16-.32a10,10,0,0,1,13.79-3.35c5.22,3.18,8.53,9.1,9.33,16.66a31.74,31.74,0,0,1-4,19.22L72,73.91,141,4.86A16.63,16.63,0,0,1,169.4,16.44l.83-.83a16.63,16.63,0,1,1,23.52,23.51l-.83.83a16.62,16.62,0,0,1,11.57,28.38L189.15,83.68a16.46,16.46,0,0,1,11.57,4.87,16.65,16.65,0,0,1,0,23.51l-75.83,75.83A72.87,72.87,0,0,1,73.18,209.27ZM66.24,29C65,31.86,51.91,61.08,25,88a68.14,68.14,0,0,0,96.36,96.36l75.83-75.82a11.63,11.63,0,0,0-16.45-16.45l-36.07,36.07-3.53-3.53L201,64.8a11.63,11.63,0,0,0-16.45-16.45l-59.82,59.82-3.53-3.53,69.05-69a11.63,11.63,0,0,0-16.44-16.45L104.72,88.19l-3.54-3.53L161,24.84A11.63,11.63,0,0,0,152.78,5a11.52,11.52,0,0,0-8.22,3.41L62.61,90.35A70.6,70.6,0,0,1,78.28,111.4a71.77,71.77,0,0,1,7.06,35.38l-5-.28a66.77,66.77,0,0,0-6.55-32.91,65.9,65.9,0,0,0-16-20.85L55.73,91l21-34.48A26.57,26.57,0,0,0,80,40.37c-.37-3.46-1.75-9.74-7-12.91A5,5,0,0,0,66.24,29Z"/><path class="cls-2" d="M147.94,143.27a205.41,205.41,0,0,0-19.72-29.44A206.08,206.08,0,0,0,90.71,77.65l3-4a211.4,211.4,0,0,1,38.42,37.05,210.88,210.88,0,0,1,20.2,30.15Z"/><path class="cls-3" d="M86,162.66,105.88,130c6-9.77,5.27-26.49-4.5-32.44h0A7.53,7.53,0,0,0,91,100.05s-13.09,30.69-40.8,58.39a70.64,70.64,0,0,0,99.9,99.89L226,182.51a14.12,14.12,0,0,0,0-20h0a14.11,14.11,0,0,0-20,0L169.91,198.6l59.81-59.82a14.12,14.12,0,0,0,0-20h0a14.11,14.11,0,0,0-20,0l-59.82,59.82,69-69.05a14.12,14.12,0,0,0,0-20h0a14.12,14.12,0,0,0-20,0l-69.05,69,59.82-59.82a14.14,14.14,0,0,0,0-20h0a14.14,14.14,0,0,0-20,0L86.06,162.57"/><path class="cls-2" d="M100.18,281.49A73.11,73.11,0,0,1,48.47,156.67a207.6,207.6,0,0,0,40.26-57.6l.16-.32a10,10,0,0,1,13.79-3.35c11,6.69,11.9,25.1,5.33,35.88l-9,14.85,69.05-69A16.63,16.63,0,0,1,196.4,88.66l.83-.84a16.63,16.63,0,1,1,23.52,23.51l-.84.84a16.62,16.62,0,0,1,11.58,28.38L216.14,155.9a16.62,16.62,0,0,1,11.58,28.37L151.89,260.1A72.88,72.88,0,0,1,100.18,281.49ZM93.25,101.22c-1.25,2.85-14.34,32.07-41.25,59a68.14,68.14,0,0,0,96.36,96.36l75.83-75.83a11.63,11.63,0,1,0-16.45-16.44l-36.07,36.07-3.53-3.54L228,137a11.63,11.63,0,1,0-16.45-16.44l-59.82,59.82-3.53-3.54,69.05-69a11.62,11.62,0,1,0-16.44-16.44l-9.23,9.22h0l-59.81,59.82-3.54-3.54L188,97.05a11.62,11.62,0,0,0-16.44-16.44L87.83,164.34,86.43,163l-2.6-1.59,19.91-32.68c5.36-8.79,4.72-23.9-3.66-29A5,5,0,0,0,93.25,101.22Z"/><rect class="cls-2" x="232.57" y="36.58" width="5" height="28.76"/><line class="cls-1" x1="252.98" y1="75.51" x2="273.31" y2="55.18"/><rect class="cls-2" x="248.77" y="62.84" width="28.76" height="5" transform="translate(30.87 205.21) rotate(-45)"/><rect class="cls-2" x="257.75" y="95.88" width="28.76" height="5"/></svg>