<svg id="Capa_1" data-name="Capa 1" xmlns="http://www.w3.org/2000/svg" viewBox="0 0 242.04 308.51"><defs><style>.cls-1{fill:#f7e37c;}.cls-2{fill:#353536;}.cls-3{fill:#fff;}</style></defs><title>coronavirus</title><path class="cls-1" d="M145.46,9.93H38.55c-.67.06-5.94.4-9.56-3.62A11.19,11.19,0,0,1,26.24,0C10.62,4.33-.06,18.23,0,33.17.07,50.64,14.83,66.25,34.08,67.25l1.58-.07A26.09,26.09,0,0,0,41,66.39c9.29-2.33,42.88-8.84,58.15,14.71,22.1,34.09,47.63,36.66,78.46,34.94h9.85a19,19,0,0,1,19,19h0a19,19,0,0,1-19,19h-9.85v47h0c18.87-5.9,33.59-18.57,43.62-35.17l4-7.61a79.88,79.88,0,0,0,7.48-33.82V90.14A80.27,80.27,0,0,0,152.48,9.88H133.86"/><polygon class="cls-2" points="71.64 157.01 53.25 145.79 71.54 132.27 74.52 136.29 62.2 145.39 74.24 152.74 71.64 157.01"/><rect class="cls-2" x="8.73" y="243.58" width="24.88" height="5" transform="translate(-147.98 66.1) rotate(-38.31)"/><rect class="cls-2" x="29.77" y="257.39" width="24.88" height="5" transform="translate(-196.08 147.9) rotate(-55.6)"/><rect class="cls-2" x="0.17" y="219.92" width="24.89" height="5" transform="translate(-78.84 19.28) rotate(-20.99)"/><polygon class="cls-2" points="186.91 301.7 99.27 301.7 99.27 257.88 104.27 257.88 104.27 296.7 181.91 296.7 181.91 251.98 186.91 251.98 186.91 301.7"/><path class="cls-3" d="M87.85,306h112V263.84H185.37l-84,30a19.3,19.3,0,0,0-10.58,6.66A18.12,18.12,0,0,0,87.85,306Z"/><path class="cls-2" d="M202.35,308.51H84.4l1.07-3.28a20.73,20.73,0,0,1,3.35-6.3,21.88,21.88,0,0,1,11.82-7.52l84.3-30.07h17.41Zm-110.62-5H197.35V266.34H185.8l-83.71,29.87-.13,0a16.85,16.85,0,0,0-9.2,5.77A15.32,15.32,0,0,0,91.73,303.51Z"/><path class="cls-2" d="M115.42,262.27a67,67,0,0,1-14.29-1.53c-18.7-4.69-31.37-12.1-42.43-24.78L56,232.82,72.25,229c2.65-.68,3.41-1.45,3.63-1.85a3,3,0,0,0-.17-2.17c-2.08-6.12-12.68-12.47-31.16-12L43,213l-.71-1.44a52.27,52.27,0,0,1-3.23-8A8.29,8.29,0,0,0,35.34,199l-8.28-4.89a12.85,12.85,0,0,1-4.54-17.55l9.66-16.45a16.06,16.06,0,0,0,2.2-8.11v-44.5a88.21,88.21,0,0,1,4.85-28.91L44,80.2a82.87,82.87,0,0,0-4.58,27.27V152a21,21,0,0,1-2.89,10.64l-9.66,16.45a7.84,7.84,0,0,0,2.77,10.71l8.28,4.9a13.25,13.25,0,0,1,5.89,7.43A46.08,46.08,0,0,0,46.05,208h.11c14.73,0,30.63,4.68,34.28,15.44a7.37,7.37,0,0,1-.17,6.16c-1.1,2-3.27,3.42-6.83,4.33l-8.13,1.89c9.75,10.09,20.76,16,37,20.09a59.68,59.68,0,0,0,24.22.33l1.2,4.85A55.33,55.33,0,0,1,115.42,262.27Z"/><path class="cls-2" d="M184,215.3l-1.49-4.77a77.75,77.75,0,0,0,43.33-34l4-7.48A77.05,77.05,0,0,0,237,136.31V102a77.85,77.85,0,0,0-77.76-77.76H122.59v-5h36.69A82.85,82.85,0,0,1,242,102v34.29a82,82,0,0,1-7.71,34.88l-.05.11L230.17,179A82.8,82.8,0,0,1,184,215.3Z"/><path class="cls-2" d="M186.9,252h-5l0-88.53h12.35a16.52,16.52,0,1,0,0-33h-9.78c-29.12,1.62-57.2.06-80.63-36.08-14.28-22-46-16-55.44-13.64a29,29,0,0,1-5.84.86l-1.7.07h-.12c-20-1-36.37-17.45-36.45-36.57-.07-16.35,11.47-31,28.07-35.59l2.85-.79.3,2.94a8.89,8.89,0,0,0,2.12,4.9c2.79,3.09,7,2.84,7.5,2.8H152.27v5H45.45c-1.42.1-7.33.2-11.51-4.45a13.52,13.52,0,0,1-2.75-4.77C18.13,19.8,9.25,31.78,9.31,45,9.38,61.52,23.54,75.67,40.9,76.63l1.46-.06a24.11,24.11,0,0,0,4.84-.72c10.21-2.57,44.77-9,60.85,15.77,22,34,47.56,35.4,76.23,33.8h10a21.52,21.52,0,1,1,0,43h-7.35Z"/></svg>