<svg id="Capa_1" data-name="Capa 1" xmlns="http://www.w3.org/2000/svg" viewBox="0 0 280.94 291.25"><defs><style>.cls-1{fill:#f7e37c;}.cls-2{fill:#353536;}</style></defs><title>coronavirus</title><path class="cls-1" d="M187.2,201V146.4s-39-9.44-56.9-9.44-57.85,9.44-57.85,9.44v53.7c4.71,4.3,25.66,22.47,57.85,22.47C161.69,222.57,182.3,205.3,187.2,201Z"/><path class="cls-2" d="M140.47,215a88.31,88.31,0,0,1-88.21-88.21V88.21a88.21,88.21,0,0,1,176.42,0v38.57A88.31,88.31,0,0,1,140.47,215Zm0-210A83.31,83.31,0,0,0,57.26,88.21v38.57a83.21,83.21,0,0,0,166.42,0V88.21A83.31,83.31,0,0,0,140.47,5Z"/><path class="cls-2" d="M280.94,291.25H0l0-2.51a49.92,49.92,0,0,1,11.11-29c8.61-10.38,23.27-15.33,33.55-18.15,5.89-1.62,11.82-2.67,18.11-3.79,6.58-1.18,13.38-2.39,20.69-4.35a22,22,0,0,0,10.15-6.07,22.8,22.8,0,0,0,6-14.93V199.12l3.74,2.15a83.41,83.41,0,0,0,74.26,0l3.74-2.15v13.37a22.86,22.86,0,0,0,6,14.88,22.07,22.07,0,0,0,10.16,6.08c7.29,2,14.1,3.16,20.67,4.34,6.29,1.12,12.22,2.17,18.11,3.79,10.28,2.82,24.94,7.77,33.55,18.15h0a50,50,0,0,1,11.12,29Zm-275.73-5H275.73A45.8,45.8,0,0,0,266,262.92c-7.71-9.29-21.39-13.88-31-16.52-5.67-1.56-11.49-2.59-17.66-3.69-6.68-1.19-13.59-2.42-21.11-4.44a27,27,0,0,1-12.49-7.47,27.92,27.92,0,0,1-7.34-18.26v-5.08a89.2,89.2,0,0,1-71.74,0v5a27.91,27.91,0,0,1-7.33,18.31,27.14,27.14,0,0,1-12.47,7.47c-7.54,2-14.45,3.25-21.13,4.44-6.17,1.1-12,2.13-17.67,3.69-9.62,2.64-23.31,7.23-31,16.52A45.6,45.6,0,0,0,5.21,286.25Z"/><path class="cls-2" d="M57.26,129.38H44.92a21.52,21.52,0,0,1,0-43H57.26Zm-12.34-38a16.52,16.52,0,0,0,0,33h7.34v-33Z"/><path class="cls-2" d="M236,129.38H223.68v-43H236a21.52,21.52,0,1,1,0,43Zm-7.35-5H236a16.52,16.52,0,1,0,0-33h-7.35Z"/><circle class="cls-2" cx="106.96" cy="112.5" r="9.47"/><circle class="cls-2" cx="173.71" cy="112.5" r="9.47"/><path class="cls-2" d="M140.47,268.92c-24.14,0-47.36-9.92-65.36-27.93l3.54-3.54c17.06,17.07,39,26.47,61.82,26.47s44.77-9.4,61.83-26.47l3.53,3.54C187.83,259,164.62,268.92,140.47,268.92Z"/><path class="cls-2" d="M226.17,96c-3.47,0-82.47-.77-109.42-44.14a63.55,63.55,0,0,1-18.9,29c-14.24,12.23-31.28,15-43,15.12l-.07-5c11-.14,26.76-2.66,39.87-13.92,9.1-7.81,15.56-18.64,18.69-31.33a2.67,2.67,0,0,1,5.19-1C130,68,157.57,79.25,178.7,84.62A216.28,216.28,0,0,0,226.19,91Z"/><path class="cls-2" d="M273.23,213.54A49.61,49.61,0,0,1,223.68,164h5a44.61,44.61,0,0,0,44.55,44.56c.89,0,1.78,0,2.67-.08l0-115.64A44.6,44.6,0,0,0,217.1,50.6l-1.6-4.74a49.61,49.61,0,0,1,65.43,47l0,120.18-2.23.24A49.45,49.45,0,0,1,273.23,213.54Z"/><path class="cls-2" d="M140.47,215c-30.88,0-51.92-16.17-59.53-23.12l-.82-.75V134.33l1.93-.45c1.64-.39,40.47-9.5,58.42-9.5s55.88,9.12,57.49,9.5l1.91.47V192l-.84.74C191.48,199.43,170.67,215,140.47,215ZM85.12,188.91c7.8,6.89,27.26,21.08,55.35,21.08,27.44,0,46.66-13.61,54.4-20.25V138.29c-8-1.87-39.26-8.91-54.4-8.91s-47.18,7.06-55.35,8.92Z"/><rect class="cls-2" x="66.2" y="97.85" width="5" height="43.51" transform="translate(-60.65 71.72) rotate(-39.81)"/><rect class="cls-2" x="189.54" y="117.1" width="43.51" height="5" transform="translate(-15.87 205.31) rotate(-50.18)"/><rect class="cls-2" x="223.68" y="126.88" width="5" height="37.11"/></svg>