<svg id="Capa_1" data-name="Capa 1" xmlns="http://www.w3.org/2000/svg" xmlns:xlink="http://www.w3.org/1999/xlink" viewBox="0 0 315.86 315.86"><defs><style>.cls-1{fill:none;}.cls-2{clip-path:url(#clip-path);}.cls-3{fill:#f7e37c;}.cls-4{fill:#353536;}</style><clipPath id="clip-path"><path class="cls-1" d="M243.6,214.92s7.48,1.13,12.73,4.1a25.44,25.44,0,0,1,6.69,5.5,17.45,17.45,0,0,1,3.5,6.77,13.08,13.08,0,1,0,9.32-16.22,15.29,15.29,0,0,1-6.95.33,28.29,28.29,0,0,1-8.56-3.32,30.5,30.5,0,0,1-9.8-9.26h0a102.28,102.28,0,0,0,10.06-38.06h0a30.24,30.24,0,0,1,13.1-3.12,25.31,25.31,0,0,1,8.55,1.42,17.4,17.4,0,0,1,6.42,4.11,13.09,13.09,0,1,0,0-18.71,15.28,15.28,0,0,1-5.86,3.76,28.37,28.37,0,0,1-9.07,1.4,30.46,30.46,0,0,1-13.14-3.12h0a102.43,102.43,0,0,0-10.28-38h0a30.26,30.26,0,0,1,9.76-9.25,25.49,25.49,0,0,1,8.12-3.05,17.33,17.33,0,0,1,7.61.36,13.09,13.09,0,1,0-9.39-16.19,15.25,15.25,0,0,1-3.19,6.19A28.16,28.16,0,0,1,256,96.32a30.51,30.51,0,0,1-12.93,3.87h0a103.55,103.55,0,0,0-28.26-28h0A31.34,31.34,0,0,1,219,59.53a25.25,25.25,0,0,1,5.5-6.69,17.32,17.32,0,0,1,6.77-3.5A13.08,13.08,0,1,0,215.07,40,15.43,15.43,0,0,1,215.4,47a28.55,28.55,0,0,1-3.32,8.56,29.74,29.74,0,0,1-9.69,9.6h0a102.26,102.26,0,0,0-37.63-9.86h0a30.36,30.36,0,0,1-3.13-13.1,25.56,25.56,0,0,1,1.42-8.55,17.43,17.43,0,0,1,4.12-6.42,13.08,13.08,0,1,0-18.72,0,15.43,15.43,0,0,1,3.77,5.86,28.37,28.37,0,0,1,1.4,9.07,30.46,30.46,0,0,1-3.12,13.14h0a102.48,102.48,0,0,0-38,10.28h0a30.25,30.25,0,0,1-9.24-9.76,25.49,25.49,0,0,1-3.05-8.12,17.33,17.33,0,0,1,.36-7.61,13.09,13.09,0,1,0-16.19,9.39,15.32,15.32,0,0,1,6.19,3.19,28.16,28.16,0,0,1,5.75,7.16,30.46,30.46,0,0,1,3.86,12.93h0a103.26,103.26,0,0,0-27.75,27.92h0a30.49,30.49,0,0,1-12.9-3.85,25.31,25.31,0,0,1-6.7-5.5,17.59,17.59,0,0,1-3.5-6.77,13.08,13.08,0,0,0-24.59-1.64A13.08,13.08,0,0,0,40,100.79a15.32,15.32,0,0,1,7-.33,28.29,28.29,0,0,1,8.56,3.32,30.51,30.51,0,0,1,9.8,9.27h0A102.23,102.23,0,0,0,55.27,151.1h0a30.36,30.36,0,0,1-13.1,3.13,25.51,25.51,0,0,1-8.55-1.42,17.43,17.43,0,0,1-6.42-4.12,13.08,13.08,0,1,0,0,18.72,15.35,15.35,0,0,1,5.86-3.77,28.37,28.37,0,0,1,9.07-1.4,30.46,30.46,0,0,1,13.14,3.12h0a102.29,102.29,0,0,0,10.28,38h0a30.25,30.25,0,0,1-9.76,9.24,25.49,25.49,0,0,1-8.12,3.05,17.33,17.33,0,0,1-7.61-.36,13.08,13.08,0,1,0,9.39,16.19,15.32,15.32,0,0,1,3.19-6.19,28.27,28.27,0,0,1,7.15-5.75,30.49,30.49,0,0,1,12.94-3.86h0a103.36,103.36,0,0,0,27.91,27.75h0a30.3,30.3,0,0,1-3.84,12.9,25.51,25.51,0,0,1-5.5,6.7,17.56,17.56,0,0,1-6.78,3.5,13.08,13.08,0,1,0,16.23,9.32,15.32,15.32,0,0,1-.33-7,28.29,28.29,0,0,1,3.32-8.56,30.5,30.5,0,0,1,9.26-9.8h0a102.28,102.28,0,0,0,38.06,10.06h0a30.24,30.24,0,0,1,3.12,13.1,25.26,25.26,0,0,1-1.42,8.55,17.4,17.4,0,0,1-4.11,6.42,13.09,13.09,0,1,0,18.71,0,15.21,15.21,0,0,1-3.76-5.86,28.37,28.37,0,0,1-1.4-9.07,30.46,30.46,0,0,1,3.12-13.14h0a102.24,102.24,0,0,0,38-10.28h0A30.26,30.26,0,0,1,212.6,260a25.49,25.49,0,0,1,3.05,8.12,17.33,17.33,0,0,1-.36,7.61,13.08,13.08,0,1,0,16.19-9.39,15.25,15.25,0,0,1-6.19-3.19,28.27,28.27,0,0,1-5.75-7.15,30.54,30.54,0,0,1-3.87-12.94h0A101.23,101.23,0,0,0,243.6,214.92Z"/></clipPath></defs><title>coronavirus</title><g class="cls-2"><path class="cls-3" d="M238.77,238.11c-4.41-.49-8.8-1.09-13.19-1.73a31.2,31.2,0,0,1-26-.95l-.67,0a31.29,31.29,0,0,1-18-5.56l-.57-.11c-28.65-.36-55.53-13.75-77-32.22A136.6,136.6,0,0,1,66.48,146a91.8,91.8,0,0,1-9.09-26,50.89,50.89,0,0,1-.76-6.17H-59v258H264.1v-131Q251.4,239.83,238.77,238.11Z"/></g><path class="cls-4" d="M157.79,5a13.08,13.08,0,0,1,9.38,22.2,17.43,17.43,0,0,0-4.12,6.42,25.56,25.56,0,0,0-1.42,8.55,30.36,30.36,0,0,0,3.13,13.1,102.26,102.26,0,0,1,37.63,9.86,29.74,29.74,0,0,0,9.69-9.6A28.55,28.55,0,0,0,215.4,47a15.43,15.43,0,0,0-.33-6.95,13.08,13.08,0,0,1,12.71-16.35,12.89,12.89,0,0,1,5.15,1.07,13.09,13.09,0,0,1-1.64,24.6,17.32,17.32,0,0,0-6.77,3.5,25.25,25.25,0,0,0-5.5,6.69,31.34,31.34,0,0,0-4.19,12.67,103.55,103.55,0,0,1,28.26,28A30.51,30.51,0,0,0,256,96.32a28.16,28.16,0,0,0,7.16-5.75,15.25,15.25,0,0,0,3.19-6.19,13.08,13.08,0,0,1,7.52-8.55,12.81,12.81,0,0,1,5-1A13.08,13.08,0,1,1,279,101a13.42,13.42,0,0,1-3.23-.4,19,19,0,0,0-4.73-.63,15.52,15.52,0,0,0-2.88.27,25.49,25.49,0,0,0-8.12,3.05,30.26,30.26,0,0,0-9.76,9.25,102.43,102.43,0,0,1,10.28,38,30.46,30.46,0,0,0,13.14,3.12H274a28.41,28.41,0,0,0,8.81-1.4,15.28,15.28,0,0,0,5.86-3.76,13.1,13.1,0,0,1,10.79-3.65,13.08,13.08,0,1,1-10.75,22.36,17.4,17.4,0,0,0-6.42-4.11,25.37,25.37,0,0,0-8.33-1.43h-.22a30.24,30.24,0,0,0-13.1,3.12,102.28,102.28,0,0,1-10.06,38.06,30.5,30.5,0,0,0,9.8,9.26,28.29,28.29,0,0,0,8.56,3.32,12.79,12.79,0,0,0,2.62.26,17.24,17.24,0,0,0,4.33-.59A13,13,0,0,1,287,217.31a13.08,13.08,0,1,1-20.49,14,17.45,17.45,0,0,0-3.5-6.77,25.44,25.44,0,0,0-6.69-5.5c-5.25-3-12.73-4.1-12.73-4.1a101.23,101.23,0,0,1-27.93,28.17A30.54,30.54,0,0,0,219.54,256a28.27,28.27,0,0,0,5.75,7.15,15.25,15.25,0,0,0,6.19,3.19,13.09,13.09,0,1,1-16.19,9.39,17.33,17.33,0,0,0,.36-7.61A25.49,25.49,0,0,0,212.6,260a30.26,30.26,0,0,0-9.25-9.76,102.24,102.24,0,0,1-38,10.28,30.46,30.46,0,0,0-3.12,13.14,28.37,28.37,0,0,0,1.4,9.07,15.21,15.21,0,0,0,3.76,5.86,13.08,13.08,0,0,1-7.83,22.16c-.5.05-1,.08-1.5.08a13.08,13.08,0,0,1-9.38-22.2,17.4,17.4,0,0,0,4.11-6.42,25.26,25.26,0,0,0,1.42-8.55,30.24,30.24,0,0,0-3.12-13.1A102.28,102.28,0,0,1,113,250.53a30.5,30.5,0,0,0-9.26,9.8,28.29,28.29,0,0,0-3.32,8.56,15.32,15.32,0,0,0,.33,7,13.07,13.07,0,0,1-12.71,16.34,12.68,12.68,0,0,1-5.15-1.07,13.08,13.08,0,0,1,1.63-24.59,17.56,17.56,0,0,0,6.78-3.5,25.51,25.51,0,0,0,5.5-6.7,30.3,30.3,0,0,0,3.84-12.9,103.36,103.36,0,0,1-27.91-27.75,30.49,30.49,0,0,0-12.94,3.86,28.27,28.27,0,0,0-7.15,5.75,15.32,15.32,0,0,0-3.19,6.19A13,13,0,0,1,42,240a12.78,12.78,0,0,1-5,1,13.08,13.08,0,0,1-6.6-24.41,13,13,0,0,1,6.53-1.76,13.48,13.48,0,0,1,3.23.4,19,19,0,0,0,4.73.63,14.78,14.78,0,0,0,2.88-.27,25.49,25.49,0,0,0,8.12-3.05,30.25,30.25,0,0,0,9.76-9.24,102.29,102.29,0,0,1-10.28-38,30.46,30.46,0,0,0-13.14-3.12h-.26a28.3,28.3,0,0,0-8.81,1.4,15.35,15.35,0,0,0-5.86,3.77,13.05,13.05,0,0,1-9.16,3.74,12.85,12.85,0,0,1-1.63-.1A13.08,13.08,0,1,1,27.2,148.69a17.43,17.43,0,0,0,6.42,4.12A25.6,25.6,0,0,0,42,154.23h.22a30.36,30.36,0,0,0,13.1-3.13,102.23,102.23,0,0,1,10.06-38,30.51,30.51,0,0,0-9.8-9.27A28.29,28.29,0,0,0,47,100.46a12.86,12.86,0,0,0-2.62-.26,17.86,17.86,0,0,0-4.34.59,12.88,12.88,0,0,1-3.28.42,13.08,13.08,0,1,1,12.6-16.64,17.59,17.59,0,0,0,3.5,6.77,25.31,25.31,0,0,0,6.7,5.5,30.49,30.49,0,0,0,12.9,3.85,103.26,103.26,0,0,1,27.75-27.92,30.46,30.46,0,0,0-3.86-12.93,28.16,28.16,0,0,0-5.75-7.16,15.32,15.32,0,0,0-6.19-3.19,13.07,13.07,0,1,1,16.19-9.39,17.33,17.33,0,0,0-.36,7.61,25.49,25.49,0,0,0,3.05,8.12,30.25,30.25,0,0,0,9.24,9.76,102.48,102.48,0,0,1,38-10.28,30.46,30.46,0,0,0,3.12-13.14,28.37,28.37,0,0,0-1.4-9.07,15.43,15.43,0,0,0-3.77-5.86,13.09,13.09,0,0,1,7.83-22.16c.51,0,1-.08,1.51-.08m0-5h0a17.79,17.79,0,0,0-2.06.12,18.07,18.07,0,0,0-10.84,30.63,10.38,10.38,0,0,1,2.58,3.91,23.6,23.6,0,0,1,1.15,7.47,25.71,25.71,0,0,1-1.53,8.46,106.59,106.59,0,0,0-34,9.2,25.79,25.79,0,0,1-5.5-6.5,20,20,0,0,1-2.45-6.53,12.61,12.61,0,0,1,.29-5.43,17.94,17.94,0,0,0-1.87-13.48A18.08,18.08,0,1,0,83,54.31a10.29,10.29,0,0,1,4.19,2.1A23.3,23.3,0,0,1,92,62.3a25.77,25.77,0,0,1,2.9,8.08A107.91,107.91,0,0,0,70,95.37a25.64,25.64,0,0,1-8-2.88,20.27,20.27,0,0,1-5.38-4.43,12.45,12.45,0,0,1-2.46-4.85,18.08,18.08,0,1,0-17.42,23,17.76,17.76,0,0,0,4.53-.58,12.93,12.93,0,0,1,3.09-.43,7.33,7.33,0,0,1,1.59.16A23.41,23.41,0,0,1,53,108.09a26,26,0,0,1,6.54,5.54,107,107,0,0,0-9,34.07,25.35,25.35,0,0,1-8.39,1.53H42a20.3,20.3,0,0,1-6.7-1.15,12.43,12.43,0,0,1-4.56-3,18.09,18.09,0,0,0-30.58,15A18.2,18.2,0,0,0,15.85,176a18.53,18.53,0,0,0,2.23.13A18,18,0,0,0,30.74,171a10.48,10.48,0,0,1,3.92-2.58,23.44,23.44,0,0,1,7.25-1.15h.22a25.59,25.59,0,0,1,8.45,1.53,107.12,107.12,0,0,0,9.2,34,25.54,25.54,0,0,1-6.49,5.5,20.08,20.08,0,0,1-6.53,2.45,10.11,10.11,0,0,1-1.93.18,14.58,14.58,0,0,1-3.51-.47,18.08,18.08,0,1,0-4.38,35.61,17.66,17.66,0,0,0,7-1.43,18.07,18.07,0,0,0,10.38-11.81,10.29,10.29,0,0,1,2.1-4.19,23.13,23.13,0,0,1,5.89-4.74,25.68,25.68,0,0,1,8.08-2.9,107.72,107.72,0,0,0,25,24.84,25.64,25.64,0,0,1-2.88,8,20.27,20.27,0,0,1-4.43,5.38,12.45,12.45,0,0,1-4.85,2.46,18.08,18.08,0,0,0-2.28,34,17.65,17.65,0,0,0,7.15,1.49,18.07,18.07,0,0,0,17.55-22.59,10.36,10.36,0,0,1-.27-4.68,22.9,22.9,0,0,1,2.73-7.05,25.78,25.78,0,0,1,5.54-6.54,106.92,106.92,0,0,0,34.07,9,25.38,25.38,0,0,1,1.52,8.39,20.31,20.31,0,0,1-1.14,6.88,12.56,12.56,0,0,1-3,4.56,18.08,18.08,0,0,0,13,30.69,20.46,20.46,0,0,0,2.06-.11A18.08,18.08,0,0,0,171,285.12a10.48,10.48,0,0,1-2.58-3.92,23,23,0,0,1-1.15-7.47,25.88,25.88,0,0,1,1.52-8.45,107,107,0,0,0,34-9.2,25.35,25.35,0,0,1,5.51,6.49,20.31,20.31,0,0,1,2.45,6.53,12.61,12.61,0,0,1-.29,5.43,18.08,18.08,0,1,0,22.37-13,10.4,10.4,0,0,1-4.2-2.1,23.31,23.31,0,0,1-4.73-5.89,25.68,25.68,0,0,1-2.9-8.08,106.72,106.72,0,0,0,24.87-25,32.61,32.61,0,0,1,8,2.89,20.47,20.47,0,0,1,5.39,4.43,12.59,12.59,0,0,1,2.46,4.85,18.11,18.11,0,1,0,12.89-22.42,12.44,12.44,0,0,1-3.09.43,7.48,7.48,0,0,1-1.6-.16,22.94,22.94,0,0,1-7-2.73,25.43,25.43,0,0,1-6.54-5.54,106.91,106.91,0,0,0,9-34.07,25.5,25.5,0,0,1,8.4-1.52h.18a20.29,20.29,0,0,1,6.7,1.14,12.56,12.56,0,0,1,4.56,3,18.09,18.09,0,0,0,26.09-.91,18.08,18.08,0,0,0-11.25-30,18.54,18.54,0,0,0-2.23-.14,18,18,0,0,0-12.67,5.18,10.38,10.38,0,0,1-3.91,2.58,23.44,23.44,0,0,1-7.25,1.15h-.22a26,26,0,0,1-8.46-1.52,106.45,106.45,0,0,0-9.2-34,25.59,25.59,0,0,1,6.5-5.51,20.23,20.23,0,0,1,6.53-2.45,10,10,0,0,1,1.93-.18,14.44,14.44,0,0,1,3.5.47,18.08,18.08,0,1,0,4.39-35.6,17.79,17.79,0,0,0-7,1.42A18.07,18.07,0,0,0,261.55,83a10.4,10.4,0,0,1-2.1,4.2A23.48,23.48,0,0,1,253.56,92a25.73,25.73,0,0,1-8.09,2.9,107.59,107.59,0,0,0-25.23-25A30.36,30.36,0,0,1,223.37,62a20.47,20.47,0,0,1,4.43-5.39,12.59,12.59,0,0,1,4.85-2.46,18.08,18.08,0,0,0,2.28-34,17.69,17.69,0,0,0-7.15-1.49,18.07,18.07,0,0,0-17.55,22.59A10.4,10.4,0,0,1,210.5,46a23.46,23.46,0,0,1-2.73,7,22.69,22.69,0,0,1-5.87,6.4,106.82,106.82,0,0,0-33.74-8.86,25.47,25.47,0,0,1-1.53-8.4,20.32,20.32,0,0,1,1.15-6.88,12.43,12.43,0,0,1,3-4.56A18.08,18.08,0,0,0,157.79,0Z"/><circle class="cls-3" cx="185.4" cy="219.28" r="11.48"/><circle class="cls-3" cx="119.28" cy="205.76" r="11.48"/><circle class="cls-3" cx="139.83" cy="92.15" r="11.48"/><circle class="cls-3" cx="230.7" cy="169.71" r="11.48"/><circle class="cls-3" cx="211.22" cy="109.58" r="11.48"/><circle class="cls-3" cx="99.16" cy="145.96" r="11.48"/><circle class="cls-3" cx="165.92" cy="154.45" r="11.48"/><path class="cls-4" d="M177.4,211.28a11.48,11.48,0,1,1-6.84,2.27,11.45,11.45,0,0,1,6.84-2.27m0-5h0a16.49,16.49,0,0,0-13.21,26.32,16.56,16.56,0,0,0,13.23,6.64,16.48,16.48,0,0,0,13.21-26.32,16.55,16.55,0,0,0-13.23-6.64Z"/><path class="cls-4" d="M111.29,197.76a11.48,11.48,0,1,1-6.85,2.27,11.45,11.45,0,0,1,6.85-2.27m0-5h0a16.49,16.49,0,0,0-13.22,26.32,16.58,16.58,0,0,0,13.23,6.64,16.49,16.49,0,0,0,13.22-26.32,16.6,16.6,0,0,0-13.23-6.64Z"/><path class="cls-4" d="M131.83,84.15A11.48,11.48,0,1,1,125,86.42a11.45,11.45,0,0,1,6.84-2.27m0-5h0a16.48,16.48,0,0,0-13.21,26.32,16.56,16.56,0,0,0,13.23,6.64,16.48,16.48,0,0,0,13.21-26.32,16.55,16.55,0,0,0-13.23-6.64Z"/><path class="cls-4" d="M222.7,161.71a11.48,11.48,0,1,1-6.84,2.27,11.45,11.45,0,0,1,6.84-2.27m0-5h0A16.48,16.48,0,0,0,209.49,183a16.56,16.56,0,0,0,13.23,6.64,16.48,16.48,0,0,0,13.21-26.32,16.55,16.55,0,0,0-13.23-6.64Z"/><path class="cls-4" d="M203.23,101.58a11.48,11.48,0,1,1-6.85,2.27,11.48,11.48,0,0,1,6.85-2.27m0-5h0A16.48,16.48,0,0,0,190,122.9a16.55,16.55,0,0,0,13.23,6.64,16.32,16.32,0,0,0,9.83-3.26,16.48,16.48,0,0,0-9.85-29.7Z"/><path class="cls-4" d="M91.17,138a11.48,11.48,0,1,1-6.85,2.27A11.48,11.48,0,0,1,91.17,138m0-5h0A16.48,16.48,0,0,0,78,159.28,16.48,16.48,0,1,0,91.17,133Z"/><path class="cls-4" d="M157.92,146.45a11.48,11.48,0,1,1-6.85,2.27,11.48,11.48,0,0,1,6.85-2.27m0-5h0a16.48,16.48,0,0,0-13.21,26.32,16.48,16.48,0,0,0,23.06,3.38,16.49,16.49,0,0,0,3.38-23.06,16.56,16.56,0,0,0-13.23-6.64Z"/></svg>