<svg id="Capa_1" data-name="Capa 1" xmlns="http://www.w3.org/2000/svg" viewBox="0 0 356.27 310.99"><defs><style>.cls-1{fill:#f7e37c;}.cls-2{fill:none;}.cls-2,.cls-3{stroke:#353536;stroke-miterlimit:10;stroke-width:5px;}.cls-3{fill:#fff;}.cls-4{fill:#353536;}</style></defs><title>coronavirus</title><path class="cls-1" d="M56.83,121.6c10.73-2,28.18-7.51,39.83-21.62,8.17-9.9,12.79-22.43,13.67-35.82,0,0-.32-1.28.4-.29,30.49,41.87,112,29,116.46,28.26l1-.16-.87-5a85.71,85.71,0,0,0-99.06-69.85h0a85.71,85.71,0,0,0-69.84,99.07l.87,5"/><path class="cls-1" d="M235.76,62.38a47.09,47.09,0,0,1,68.82,33.34l20.08,116.22a48.59,48.59,0,0,1-5,1.16,47.06,47.06,0,0,1-54.39-38.35"/><path class="cls-2" d="M190.49,187.65c-1-1-10.55-10.5-24.65-8.61-15.37,2.06-22,15.72-22.45,16.65"/><path class="cls-2" d="M293.21,281.06c-7.63-9.19-20.37-14.07-32.29-17.34s-24.38-4.27-38.79-8.13a24.44,24.44,0,0,1-11.31-6.77,25.29,25.29,0,0,1-6.66-16.59v-9.06s-19.26,11.67-41.86,11.67a98.2,98.2,0,0,1-34.77-6.31l-.11,3.7a25.26,25.26,0,0,1-6.65,16.59,24.51,24.51,0,0,1-11.32,6.77c-14.4,3.86-26.87,4.87-38.79,8.13S46,271.87,38.37,281.06a47.71,47.71,0,0,0-10.53,27.43H303.75A47.76,47.76,0,0,0,293.21,281.06Z"/><path class="cls-2" d="M62.5,128.31h9.85a0,0,0,0,1,0,0v38a0,0,0,0,1,0,0H62.5a19,19,0,0,1-19-19v0a19,19,0,0,1,19-19Z" transform="translate(-23.97 11.85) rotate(-9.69)"/><path class="cls-3" d="M260.93,94.6h9.85a0,0,0,0,1,0,0v38a0,0,0,0,1,0,0h-9.85a19,19,0,0,1-19-19v0A19,19,0,0,1,260.93,94.6Z" transform="translate(528.15 182.47) rotate(170.31)"/><line class="cls-2" x1="177.2" y1="111.73" x2="204.62" y2="114.37"/><line class="cls-2" x1="129.43" y1="119.88" x2="104.44" y2="131.47"/><polyline class="cls-2" points="196.64 123.96 183.51 137.74 200.1 144.26"/><polyline class="cls-2" points="115.8 137.76 132.75 146.41 119.26 158.07"/><rect class="cls-4" x="7.53" y="146.77" width="7.53" height="7.53"/><rect class="cls-4" x="15.06" y="154.3" width="7.53" height="7.53"/><rect class="cls-4" x="7.53" y="161.83" width="7.53" height="7.53"/><rect class="cls-4" y="154.3" width="7.53" height="7.53"/><rect class="cls-4" x="275.58" y="12.94" width="7.53" height="7.53"/><rect class="cls-4" x="283.11" y="20.47" width="7.53" height="7.53"/><rect class="cls-4" x="275.58" y="28" width="7.53" height="7.53"/><rect class="cls-4" x="268.05" y="20.47" width="7.53" height="7.53"/><rect class="cls-4" x="67.04" y="1.65" width="7.53" height="7.53"/><rect class="cls-4" x="74.57" y="9.18" width="7.53" height="7.53"/><rect class="cls-4" x="67.04" y="16.7" width="7.53" height="7.53"/><rect class="cls-4" x="59.51" y="9.18" width="7.53" height="7.53"/><rect class="cls-4" x="341.21" y="132.48" width="7.53" height="7.53"/><rect class="cls-4" x="348.74" y="140.01" width="7.53" height="7.53"/><rect class="cls-4" x="341.21" y="147.54" width="7.53" height="7.53"/><rect class="cls-4" x="333.68" y="140.01" width="7.53" height="7.53"/><path class="cls-2" d="M230.53,259c-16.91,16.93-39.18,27.21-63.59,27.21S120.26,275.88,103.35,259"/><rect class="cls-2" x="71.18" y="24.56" width="171.41" height="209.99" rx="85.71" transform="translate(-19.79 28.64) rotate(-9.82)"/><path class="cls-2" d="M238,101.13c-4.5.77-86,13.61-116.46-28.26-.72-1-.4.29-.4.29-.88,13.39-5.5,25.92-13.67,35.82-11.65,14.11-27.65,19.38-38.37,21.38"/><path class="cls-2" d="M221.5,58.23a47.09,47.09,0,0,1,68.82,33.35L310.4,207.79a48.59,48.59,0,0,1-5,1.16A47.06,47.06,0,0,1,251,170.6"/><line class="cls-2" x1="250.97" y1="170.6" x2="244.64" y2="134.04"/><path class="cls-2" d="M148.66,16C199.58-.31,241-2.39,247.2,12.76c7.47,18.22-38.89,54.49-103.55,81S20.5,127,13,108.75C7.18,94.47,34.37,69.12,77.52,46.06"/></svg>