<svg id="Capa_1" data-name="Capa 1" xmlns="http://www.w3.org/2000/svg" viewBox="0 0 284.12 275.43"><defs><style>.cls-1{fill:#f7e37c;}.cls-2{fill:#353536;}</style></defs><title>coronavirus</title><path class="cls-1" d="M150.53,275.43c-7.06-5.5-31.53-25.91-38-62.85a101.83,101.83,0,0,1,4-50.24l7.5-17.71,3.27-6.59c5.31,2.65,39.49-2.38,44.8-5l5,11.62.2.41,7.25,17.31a102,102,0,0,1,4,50.24c-6.51,36.94-31,57.35-38,62.85"/><ellipse class="cls-1" cx="151.5" cy="130.57" rx="13.31" ry="16.97"/><path class="cls-2" d="M142.61,267.28l-3.07-3.95c9.46-7.37,32.12-28.18,38.09-62.09a99.58,99.58,0,0,0-3.92-49l4.73-1.61a104.28,104.28,0,0,1,4.11,51.48C176.28,237.73,152.53,259.55,142.61,267.28Z"/><path class="cls-2" d="M246.6,156.45a280.41,280.41,0,0,0-15.93-63.07c-8-20.95-15.25-37.88-24.82-52.39l-3.31-5,7.39,1.49c9.57,1.92,20.42,4.1,35,12a142.19,142.19,0,0,1,37.5,29.31l-3.69,3.37a137.25,137.25,0,0,0-36.18-28.28,100.41,100.41,0,0,0-29.37-10.61c8.31,13.73,15,29.45,22.17,48.38a285.27,285.27,0,0,1,16.22,64.19Z"/><path class="cls-2" d="M142.06,267.71l-1.56-1.23c-19.42-15.38-27.5-29.13-35.32-42.43-5.72-9.72-11.11-18.9-20.72-28.61-12.41-12.55-50.39-37-50.77-37.21l-1-.66-.11-1.22A133.51,133.51,0,0,0,22,114.92,133.46,133.46,0,0,0,1.65,82.05L.76,81l.42-1.31A124.88,124.88,0,0,0,7.09,40.93,125.22,125.22,0,0,0,1.18,3.7L0,0,3.85.45a138,138,0,0,1,40.93,11.4A137.8,137.8,0,0,1,80.94,35.73l.75.68,4.66,80,48.43,24.17a16.44,16.44,0,0,0,14.63,0l48.36-24.16,4.67-79.95.75-.68A138,138,0,0,1,280.27.45L284.12,0,283,3.7a125,125,0,0,0,0,76l.41,1.31-.88,1.06a133.33,133.33,0,0,0-30.91,74.3l-.11,1.22-1,.66c-.38.25-38.36,24.66-50.77,37.21-9.6,9.71-15,18.89-20.72,28.61-7.82,13.3-15.91,27-35.33,42.43Zm-104.64-113c6.33,4.1,38.82,25.34,50.6,37.25,10,10.15,15.85,20,21.47,29.59,7.37,12.54,15,25.49,32.57,39.8,17.57-14.31,25.19-27.26,32.57-39.8,5.62-9.56,11.44-19.44,21.47-29.59,11.79-11.91,44.27-33.15,50.61-37.25a138.47,138.47,0,0,1,31.06-74.8,130.11,130.11,0,0,1-.72-74,133.08,133.08,0,0,0-69.74,32.81l-4.71,80.81-51,25.46a21.49,21.49,0,0,1-19.1,0l-51-25.46L76.81,38.73A133,133,0,0,0,42.72,16.4,133,133,0,0,0,7.08,5.92a130.2,130.2,0,0,1,5,35,129.68,129.68,0,0,1-5.74,39,138.56,138.56,0,0,1,20.27,33.05A138.62,138.62,0,0,1,37.42,154.68Z"/><path class="cls-2" d="M141.51,267.28c-9.92-7.73-33.67-29.55-39.94-65.17a104.51,104.51,0,0,1,4.11-51.48l4.74,1.61a99.42,99.42,0,0,0-3.93,49c6,33.92,28.63,54.72,38.1,62.09Z"/><path class="cls-2" d="M37.52,156.45l-5-.65A285.8,285.8,0,0,1,48.78,91.61C56,72.68,62.65,57,71,43.23A100.36,100.36,0,0,0,41.59,53.84,137.25,137.25,0,0,0,5.41,82.12l-3.7-3.37a142.31,142.31,0,0,1,37.5-29.31c14.56-7.88,25.41-10.06,35-12L81.58,36l-3.3,5C68.71,55.5,61.43,72.43,53.45,93.38A280.41,280.41,0,0,0,37.52,156.45Z"/><path class="cls-2" d="M142.09,145.59c-8.76,0-15.89-8.79-15.89-19.58s7.13-19.58,15.89-19.58S158,115.22,158,126,150.86,145.59,142.09,145.59Zm0-34.16c-6,0-10.89,6.54-10.89,14.58s4.89,14.58,10.89,14.58S153,134.05,153,126,148.1,111.43,142.09,111.43Z"/><path class="cls-2" d="M141.56,146.76c-7.44,0-17.77-5.31-26.44-13.68-9.7-9.37-15.27-20.69-15.27-31.06,0-17.4,18.69-31,42.55-31,24.25,0,42.54,13.35,42.54,31,0,23.82-26.7,44.73-42.85,44.73ZM142.4,76c-21.05,0-37.55,11.44-37.55,26,0,9,5,19,13.75,27.46,7.7,7.44,17.28,12.49,23.41,12.27,14.32,0,37.93-19.24,37.93-39.73C179.94,87.18,163.8,76,142.4,76Z"/><path class="cls-2" d="M183.58,97l-4.13-2.83a40.47,40.47,0,0,0,7.07-25.5,39.59,39.59,0,0,0-4.62-15.82L156.83,77.16l-3.48-3.59L182.9,45l1.65,2.58a44.65,44.65,0,0,1,6.95,20.83A45.58,45.58,0,0,1,183.58,97Z"/><path class="cls-2" d="M101.22,97a45.57,45.57,0,0,1-7.93-28.68,44.78,44.78,0,0,1,7-20.83L101.9,45l29.55,28.62L128,77.16,102.9,52.89a39.59,39.59,0,0,0-4.62,15.82,40.47,40.47,0,0,0,7.07,25.5Z"/><circle class="cls-2" cx="119.96" cy="106.22" r="4.59"/><circle class="cls-2" cx="164.71" cy="106.22" r="4.59"/></svg>