<svg id="Capa_1" data-name="Capa 1" xmlns="http://www.w3.org/2000/svg" viewBox="0 0 312.24 313.58"><defs><style>.cls-1{fill:#f7e37c;}.cls-2{fill:none;stroke:#353536;stroke-miterlimit:10;stroke-width:5px;}.cls-3{fill:#353536;}</style></defs><title>coronavirus</title><path class="cls-1" d="M190.46,66.08c3.86,7.09,8,14.07,18.68,21.31,8.23,5.57,12.74,5,15.77,4.92,0,0-1.11-13.86-10.08-30.4a93.21,93.21,0,0,0-35.3-34.38C153.5,13.17,125.45,19,125.45,19L56,30.89c-.65.16-5.79,1.39-10-2a11.2,11.2,0,0,1-3.77-5.75C27.5,30.07,19.31,45.56,21.89,60.28c3,17.21,20.18,30.11,39.32,27.86l-2.05.35L193,65.63"/><path class="cls-2" d="M138.9,29.21h0a85.71,85.71,0,0,1,98.91,70.06l6.49,38a85.69,85.69,0,0,1-70.06,98.9h0a85.71,85.71,0,0,1-98.91-70.06l-6.49-38a85.31,85.31,0,0,1,.06-29.31"/><path class="cls-2" d="M293.21,283.66c-7.63-9.2-20.37-14.07-32.29-17.34s-24.38-4.27-38.79-8.13a24.62,24.62,0,0,1-11.31-6.77,25.3,25.3,0,0,1-6.66-16.6v-9s-19.26,11.67-41.86,11.67a98.2,98.2,0,0,1-34.77-6.31l-.11,3.69a25.27,25.27,0,0,1-6.65,16.6,24.69,24.69,0,0,1-11.32,6.77c-14.4,3.86-26.87,4.86-38.79,8.13S46,274.46,38.37,283.66a47.69,47.69,0,0,0-10.53,27.42H303.75A47.75,47.75,0,0,0,293.21,283.66Z"/><path class="cls-2" d="M62.5,130.9h9.85a0,0,0,0,1,0,0v38a0,0,0,0,1,0,0H62.5a19,19,0,0,1-19-19v0A19,19,0,0,1,62.5,130.9Z" transform="matrix(0.99, -0.17, 0.17, 0.99, -24.4, 11.89)"/><path class="cls-2" d="M259.93,97.2h9.85a0,0,0,0,1,0,0v38a0,0,0,0,1,0,0h-9.85a19,19,0,0,1-19-19v0a19,19,0,0,1,19-19Z" transform="translate(526.6 187.8) rotate(170.31)"/><path class="cls-2" d="M203.91,76.26c3.86,7.09,8,14.08,18.68,21.32,8.23,5.57,12.75,5,15.77,4.92,0,0-1.11-13.87-10.08-30.4"/><line class="cls-2" x1="72.62" y1="98.68" x2="206.49" y2="75.82"/><path class="cls-2" d="M228.28,72.1A93.13,93.13,0,0,0,193,37.72c-26-14.37-54.08-8.51-54.08-8.51L69.42,41.07c-.65.17-5.79,1.39-10-2a11.21,11.21,0,0,1-3.77-5.76C41,40.25,32.76,55.75,35.34,70.47c3,17.21,20.18,30.11,39.32,27.86"/><path class="cls-2" d="M222,259.55c-14.94,16.93-34.61,27.21-56.17,27.21s-41.23-10.28-56.17-27.21"/><path class="cls-2" d="M190.49,190.25c-1-1.05-10.55-10.5-24.65-8.61-15.37,2.06-22,15.71-22.45,16.65"/><line class="cls-2" x1="177.2" y1="112.32" x2="204.62" y2="114.96"/><line class="cls-2" x1="129.43" y1="120.48" x2="104.44" y2="132.07"/><polyline class="cls-2" points="196.64 124.56 183.51 138.34 200.1 144.86"/><polyline class="cls-2" points="115.8 138.36 132.75 147.01 119.26 158.66"/><rect class="cls-3" x="7.53" y="147.37" width="7.53" height="7.53"/><rect class="cls-3" x="15.06" y="154.9" width="7.53" height="7.53"/><rect class="cls-3" x="7.53" y="162.43" width="7.53" height="7.53"/><rect class="cls-3" y="154.9" width="7.53" height="7.53"/><rect class="cls-3" x="297.18" y="64.7" width="7.53" height="7.53"/><rect class="cls-3" x="304.71" y="72.23" width="7.53" height="7.53"/><rect class="cls-3" x="297.18" y="79.75" width="7.53" height="7.53"/><rect class="cls-3" x="289.66" y="72.23" width="7.53" height="7.53"/><rect class="cls-3" x="268.81" y="179.46" width="7.53" height="7.53"/><rect class="cls-3" x="276.34" y="186.99" width="7.53" height="7.53"/><rect class="cls-3" x="268.81" y="194.52" width="7.53" height="7.53"/><rect class="cls-3" x="261.28" y="186.99" width="7.53" height="7.53"/><rect class="cls-3" x="44.45" y="198.28" width="7.53" height="7.53"/><rect class="cls-3" x="51.98" y="205.81" width="7.53" height="7.53"/><rect class="cls-3" x="44.45" y="213.34" width="7.53" height="7.53"/><rect class="cls-3" x="36.92" y="205.81" width="7.53" height="7.53"/><path class="cls-2" d="M142.71,18.48C194.44.21,237.27-3.09,243.9,12.21c7.8,18-37.34,54.87-100.82,82.37S21.84,129.79,14,111.8c-3.42-7.9,3.37-19.44,17.44-32.24"/></svg>