<svg id="Capa_1" data-name="Capa 1" xmlns="http://www.w3.org/2000/svg" viewBox="0 0 280.94 291.25"><defs><style>.cls-1{fill:#f7e37c;}.cls-2{fill:#353536;}</style></defs><title>coronavirus</title><path class="cls-1" d="M179.49,201.87s17.09-9,17.09-34.57c0-15.84-16.08-38.59-35.56-46a33,33,0,0,0-11.43-2.44,33.77,33.77,0,0,0-11.52,2.44c-20,7.46-36.59,30.14-36.59,46.93,0,24.47,17.27,32.77,17.27,32.77,6.76,4.32,26.1,6.47,30.84,6.47C154.62,207.49,171.84,206,179.49,201.87Z"/><path class="cls-2" d="M140.47,197.46a20.19,20.19,0,1,1,20.19-20.19A20.21,20.21,0,0,1,140.47,197.46Zm0-35.37a15.19,15.19,0,1,0,15.19,15.18A15.2,15.2,0,0,0,140.47,162.09Z"/><path class="cls-2" d="M140.47,215a88.31,88.31,0,0,1-88.21-88.21V88.21a88.21,88.21,0,0,1,176.42,0v38.57A88.31,88.31,0,0,1,140.47,215Zm0-210A83.31,83.31,0,0,0,57.26,88.21v38.57a83.21,83.21,0,0,0,166.42,0V88.21A83.31,83.31,0,0,0,140.47,5Z"/><path class="cls-2" d="M280.94,291.25H0l0-2.51a49.92,49.92,0,0,1,11.11-29c8.61-10.38,23.27-15.33,33.55-18.15,5.89-1.62,11.83-2.68,18.11-3.8,6.58-1.17,13.38-2.38,20.69-4.34a22,22,0,0,0,10.15-6.07,22.8,22.8,0,0,0,6-14.93V199.12l3.75,2.15a83.39,83.39,0,0,0,74.25,0l3.74-2.14v13.36a22.86,22.86,0,0,0,6,14.88,22.07,22.07,0,0,0,10.16,6.08c7.29,2,14.09,3.16,20.67,4.33,6.29,1.12,12.22,2.18,18.11,3.8,10.28,2.82,24.94,7.77,33.55,18.15h0a50,50,0,0,1,11.12,29Zm-275.72-5H275.73A45.8,45.8,0,0,0,266,262.92h0c-7.71-9.29-21.39-13.88-31-16.52-5.67-1.56-11.5-2.59-17.67-3.69-6.68-1.19-13.59-2.42-21.1-4.44a27,27,0,0,1-12.49-7.47,27.92,27.92,0,0,1-7.34-18.26v-5.08a89.2,89.2,0,0,1-71.74,0v5a28,28,0,0,1-7.33,18.31,27.14,27.14,0,0,1-12.47,7.47c-7.54,2-14.45,3.25-21.13,4.44-6.17,1.1-12,2.13-17.67,3.69-9.62,2.64-23.31,7.23-31,16.52A45.64,45.64,0,0,0,5.22,286.25Z"/><path class="cls-2" d="M57.26,129.38H44.92a21.52,21.52,0,0,1,0-43H57.26Zm-12.34-38a16.52,16.52,0,0,0,0,33h7.34v-33Z"/><path class="cls-2" d="M236,129.38H223.68v-43H236a21.52,21.52,0,1,1,0,43Zm-7.35-5H236a16.52,16.52,0,1,0,0-33h-7.35Z"/><circle class="cls-2" cx="106.96" cy="112.5" r="9.47"/><circle class="cls-2" cx="173.71" cy="112.5" r="9.47"/><path class="cls-2" d="M140.47,268.92c-24.14,0-47.36-9.92-65.36-27.93l3.54-3.54c17.06,17.07,39,26.47,61.82,26.47s44.77-9.4,61.83-26.47l3.53,3.54C187.83,259,164.62,268.92,140.47,268.92Z"/><path class="cls-2" d="M226.17,96c-3.47,0-82.47-.77-109.42-44.14a63.55,63.55,0,0,1-18.9,29c-14.24,12.23-31.27,15-43,15.12l-.07-5c11-.14,26.76-2.66,39.87-13.92,9.1-7.81,15.56-18.64,18.69-31.33a2.67,2.67,0,0,1,5.19-1C130,68,157.57,79.25,178.7,84.62A216.28,216.28,0,0,0,226.19,91Z"/><path class="cls-2" d="M273.23,213.54A49.61,49.61,0,0,1,223.68,164h5a44.61,44.61,0,0,0,44.55,44.56c.89,0,1.78,0,2.67-.08l0-115.64A44.6,44.6,0,0,0,217.1,50.6l-1.6-4.74a49.61,49.61,0,0,1,65.43,47l0,120.18-2.23.24A49.18,49.18,0,0,1,273.23,213.54Z"/><path class="cls-2" d="M140.47,215c-5,0-24.58-2.12-32.07-6.79-1.87-.94-18.54-10.11-18.54-34.95,0-18.64,17.86-41.67,38.21-49.28a36.17,36.17,0,0,1,12.4-2.59,35.3,35.3,0,0,1,12.32,2.6C174.06,132.05,190,156.15,190,172.3c0,26.6-17.43,36.25-18.41,36.78C163.35,213.53,145.65,215,140.47,215Zm0-88.61a31.34,31.34,0,0,0-10.65,2.28c-20,7.47-35,29.71-35,44.59,0,22.64,15.69,30.44,15.85,30.52l.26.14c6,3.86,24.69,6.08,29.5,6.08,5.39,0,21.85-1.58,28.7-5.31l0,0c.69-.37,15.76-8.75,15.76-32.36,0-14.23-14.83-36.39-34-43.65A30.42,30.42,0,0,0,140.47,126.38Z"/><path class="cls-2" d="M127.58,144,124.51,140a26.38,26.38,0,0,1,16.12-5.88,25.49,25.49,0,0,1,15.82,5.77l-3.1,3.92a20.25,20.25,0,0,0-12.72-4.69A21.45,21.45,0,0,0,127.58,144Z"/><rect class="cls-2" x="71.94" y="93.55" width="5" height="71.69" transform="matrix(0.84, -0.55, 0.55, 0.84, -58.8, 62.08)"/><rect class="cls-2" x="169.84" y="126.89" width="71.69" height="5" transform="translate(-15.37 230.31) rotate(-56.71)"/><rect class="cls-2" x="223.68" y="126.88" width="5" height="37.1"/></svg>