<svg id="Capa_1" data-name="Capa 1" xmlns="http://www.w3.org/2000/svg" viewBox="0 0 282.94 275.26"><defs><style>.cls-1{fill:#353536;}.cls-2{fill:#f7e37c;}.cls-3{fill:#fff;}</style></defs><title>coronavirus</title><path class="cls-1" d="M147.49,243.64a73,73,0,0,1-72-60.45,162.53,162.53,0,0,0-8.4-31.07L35.68,71.2a16.63,16.63,0,0,1,31-12l.13.3L89.12,117a2.74,2.74,0,0,0,3.52,1.58l.64-.24a3.07,3.07,0,0,0,1.93-3.46l-16-83.41a16.63,16.63,0,1,1,32.59-6.63c.16.8,14.48,75.31,15.94,83,.51,2.65,1.42,3.54,1.61,3.62a1.54,1.54,0,0,0,1-.17c.53-.49.53-2.38.53-3.18V16.63a16.63,16.63,0,1,1,33.25,0v97.65h-5V16.63a11.63,11.63,0,1,0-23.25,0v91.49c0,1.82,0,4.88-2.13,6.85a6.19,6.19,0,0,1-4.83,1.48c-3-.23-5.21-3-6.09-7.66-1.46-7.72-15.78-82.23-15.93-83A11.62,11.62,0,0,0,92,16.86a11.8,11.8,0,0,0-7.87,13.65l16,83.41A8.06,8.06,0,0,1,95.05,123l-.64.24a7.78,7.78,0,0,1-10-4.45L62.06,61.07A11.63,11.63,0,0,0,40.35,69.4l31.36,80.91a167.64,167.64,0,0,1,8.67,32,68,68,0,0,0,67.11,56.31c33,0,43.35-17.42,65.9-55.6l1.87-3.16c2.7-3.9,5.6-7.77,8.64-11.52l3.88,3.15c-2.93,3.62-5.75,7.37-8.36,11.14l-1.73,2.93C194.86,224.24,183.4,243.64,147.49,243.64Z"/><path class="cls-1" d="M236.28,161.7l-3.67-3.4c16.22-17.54,30.64-27.12,32.55-28.35a5,5,0,0,0,.29-7,18.24,18.24,0,0,0-25.72-1.5L210.66,147.3a14.28,14.28,0,0,1-9.5,3.62A11.43,11.43,0,0,1,190,137l8.08-36.28,4.88,1.09-8.08,36.27a6.43,6.43,0,0,0,6.28,7.83,9.33,9.33,0,0,0,6.18-2.35l29.06-25.85a23.25,23.25,0,0,1,32.79,1.92,10,10,0,0,1-.83,14.17l-.33.24C267.88,134.14,252.85,143.77,236.28,161.7Z"/><path class="cls-1" d="M164.73,118.85a5.77,5.77,0,0,1-3.72-1.33,5.24,5.24,0,0,1-1.89-4.07h5a.28.28,0,0,0,.11.24.92.92,0,0,0,.7.15c1-.18,1.67-2,1.92-2.8l18.72-84.16A16.63,16.63,0,1,1,218,34.47l-13,58.65L200,92l13.06-58.65a11.8,11.8,0,0,0-7.46-13.88,11.64,11.64,0,0,0-15.11,8.25l-.05.28-18.78,84.34c-1.36,4.67-3.95,6-5.88,6.39A6.32,6.32,0,0,1,164.73,118.85Z"/><circle class="cls-2" cx="263.84" cy="40.44" r="19.1"/><path class="cls-1" d="M255.58,69.75a21.6,21.6,0,1,1,21.6-21.6A21.62,21.62,0,0,1,255.58,69.75Zm0-38.2a16.6,16.6,0,1,0,16.6,16.6A16.61,16.61,0,0,0,255.58,31.55Z"/><circle class="cls-2" cx="58.95" cy="15.78" r="9.55"/><path class="cls-1" d="M50.69,35.54a12.05,12.05,0,1,1,12.05-12A12.06,12.06,0,0,1,50.69,35.54Zm0-19.1a7.05,7.05,0,1,0,7.05,7A7.05,7.05,0,0,0,50.69,16.44Z"/><circle class="cls-2" cx="20.31" cy="110.43" r="9.55"/><path class="cls-1" d="M12.05,130.19a12,12,0,1,1,12.05-12A12.07,12.07,0,0,1,12.05,130.19Zm0-19.1a7,7,0,1,0,7.05,7A7.05,7.05,0,0,0,12.05,111.09Z"/><path class="cls-2" d="M71.86,141.8a38.08,38.08,0,0,0-1.81,70.54c.6.26,1.21.51,1.81.73a38.09,38.09,0,0,0,70.38,23.41l.34.15A38.09,38.09,0,0,0,192.73,217c.38-.87.71-1.74,1-2.62a38.09,38.09,0,0,0,16.21-73,38.09,38.09,0,0,0-69.15-31.91A38.09,38.09,0,1,0,71.86,141.8Z"/><path class="cls-1" d="M114.68,252.79a40.53,40.53,0,0,1-40.44-42.37l-.19-.08A40.64,40.64,0,0,1,53.1,156.89a40.23,40.23,0,0,1,20.42-20.71A40.59,40.59,0,0,1,145.9,99.9a40.59,40.59,0,0,1,72.26,35.92,40.6,40.6,0,0,1-17.68,76.75c-.15.38-.31.75-.46,1.1a40.63,40.63,0,0,1-51.83,21.62A40.77,40.77,0,0,1,114.68,252.79ZM111,85.06A35.61,35.61,0,0,0,79.1,136.4l1.22,2.47-2.58,1a35.58,35.58,0,0,0-1.69,65.91c.57.25,1.13.48,1.69.69l1.78.67-.17,1.9a35.58,35.58,0,0,0,65.75,21.86l1.15-1.86,2.33,1a35.64,35.64,0,0,0,46.86-18.38c.31-.72.61-1.5.95-2.44l.6-1.72,1.82.05A35.59,35.59,0,0,0,214,139.36l-2.29-1,1-2.29a35.59,35.59,0,0,0-64.61-29.82l-2.35,4.83-2.18-4.9A35.7,35.7,0,0,0,111,85.06Z"/><path class="cls-3" d="M114.85,145.63a3,3,0,0,1-3.62,3c-2.13-.29-3.38-2.35-4.09-4.48-7.54-28.66-14.41-54.73-22-83.4v-.06A14.13,14.13,0,0,0,66.4,51.11,14.36,14.36,0,0,0,58,68.23L85,170.9a8.93,8.93,0,0,1-8.29,11.19h0a11.78,11.78,0,0,1-8-2.68l-30-24.72a20.72,20.72,0,0,0-29.17,2.84h0a7.53,7.53,0,0,0,1,10.6s27.72,16.11,51.24,47.44c25.77,40,36.73,58.48,72.06,57.12a70.65,70.65,0,0,0,67.29-61,167,167,0,0,1,7.32-31.85l28.25-82.07A14.13,14.13,0,0,0,210,88.67l-.09.2L189.81,147.2a5.26,5.26,0,0,1-6.63,3.27l-.64-.22a5.57,5.57,0,0,1-3.74-6.13L186.59,93l5-32.84A14.36,14.36,0,0,0,181.39,44a14.14,14.14,0,0,0-17.67,11.51v.05S152.16,131.25,151,139.12c-.5,3.38-1.87,5.57-3.6,5.77-4.25.49-4.4-3.47-4.49-5.67l-3.5-91.42a14.13,14.13,0,0,0-14.66-13.58h0a14.13,14.13,0,0,0-13.57,14.66l3.74,97.59-3.24-84.54"/><path class="cls-1" d="M130.39,275.26c-33.15,0-45.33-18.92-68.8-55.4L59.75,217C36.84,186.52,9.58,170.45,9.31,170.29L9,170.06A10,10,0,0,1,7.6,155.94a23.26,23.26,0,0,1,32.69-3.18l30,24.72a9.24,9.24,0,0,0,6.26,2.11,6.42,6.42,0,0,0,6-8.05l-27-102.67A16.63,16.63,0,1,1,87.6,60l8.9,33.85,13,49.53c.29.83,1,2.59,2,2.73a.93.93,0,0,0,.69-.17.29.29,0,0,0,.1-.25L108.65,49a16.64,16.64,0,0,1,16-17.25,16.62,16.62,0,0,1,17.25,16l3.5,91.42c0,.81.11,2.69.65,3.16a1.59,1.59,0,0,0,1.05.12c.15-.08,1-1,1.42-3.66C149.67,131,161.13,56,161.25,55.21a16.63,16.63,0,1,1,32.82,5.33l-12.8,84a3.06,3.06,0,0,0,2.06,3.38l.65.22a2.74,2.74,0,0,0,3.46-1.71l20.2-58.64a16.63,16.63,0,0,1,31.45,10.83l-28.25,82.07A162.57,162.57,0,0,0,203.63,212,73,73,0,0,1,134,275.19C132.74,275.24,131.55,275.26,130.39,275.26ZM12,166.09c2.74,1.62,29,17.64,51.78,48l.1.15,1.89,2.93c24,37.29,35,54.3,68,53a68,68,0,0,0,64.9-58.84A167.66,167.66,0,0,1,206.11,179L234.35,97a11.62,11.62,0,1,0-22-7.48l-.13.31-20,58.23a7.76,7.76,0,0,1-9.78,4.82l-.64-.22a8,8,0,0,1-5.42-8.87l12.8-84a11.8,11.8,0,0,0-8.38-13.34,11.62,11.62,0,0,0-14.55,9.46c-.13.81-11.59,75.81-12.75,83.58-.71,4.67-2.82,7.54-5.8,7.89a6.13,6.13,0,0,1-4.88-1.3c-2.2-1.88-2.31-4.93-2.38-6.76L136.88,47.9a11.63,11.63,0,1,0-23.24.89l3.74,97.58h-.06a5.21,5.21,0,0,1-1.7,3.31,5.83,5.83,0,0,1-4.73,1.42c-1.94-.26-4.58-1.55-6.12-6.16l0-.16-22-83.71a11.62,11.62,0,0,0-15.4-7.63,11.79,11.79,0,0,0-6.92,14.15l27,102.67a11.43,11.43,0,0,1-10.62,14.33,14.32,14.32,0,0,1-9.63-3.25l-30-24.72a18.25,18.25,0,0,0-25.65,2.5A5,5,0,0,0,12,166.09Z"/></svg>