<svg id="Capa_1" data-name="Capa 1" xmlns="http://www.w3.org/2000/svg" viewBox="0 0 238.11 210.22"><defs><style>.cls-1{fill:#f7e37c;}.cls-2{fill:#353536;}</style></defs><title>coronavirus</title><circle class="cls-1" cx="132.73" cy="132" r="40.08"/><path class="cls-2" d="M119.92,166.08a42.58,42.58,0,1,1,42.58-42.57A42.62,42.62,0,0,1,119.92,166.08Zm0-80.15a37.58,37.58,0,1,0,37.58,37.58A37.62,37.62,0,0,0,119.92,85.93Z"/><path class="cls-2" d="M98.48,112.47,94,110.17a29.16,29.16,0,0,1,36.49-13.78l-1.82,4.66a24.15,24.15,0,0,0-30.23,11.42Z"/><path class="cls-2" d="M119.92,152.62a29.14,29.14,0,0,1-29.11-29.11,28.82,28.82,0,0,1,.58-5.8l4.9,1a24.12,24.12,0,0,0,35.12,26l2.38,4.4A29.24,29.24,0,0,1,119.92,152.62Z"/><path class="cls-2" d="M141,143.58l-3.63-3.45a24.11,24.11,0,0,0-2.5-35.53l3.11-3.92a29.12,29.12,0,0,1,3,42.9Z"/><path class="cls-2" d="M119.71,210.22c-31.5,0-47.37-10-59.75-19.48-2.76-1.65-33.75-21.42-33.75-76.34C26.21,95.46,33.79,72.69,47,52,60.76,30.4,78.47,14,96.89,5.74,105.4,1.93,113.08,0,119.71,0S134,1.93,142.36,5.75c17.82,8.1,35.06,24.39,48.53,45.87,12.83,20.47,20.19,42.56,20.19,60.61,0,58.46-31.85,79.44-33.47,80.46C163.2,202.1,150.73,210.22,119.71,210.22ZM119.71,5c-5.93,0-12.92,1.79-20.78,5.31C63.49,26.17,31.21,75.79,31.21,114.4c0,53.2,31.09,71.91,31.4,72.1l.27.17c11.74,9,26.79,18.55,56.83,18.55,29.55,0,41.43-7.75,55.19-16.73l0,0c.31-.19,31.15-20.46,31.15-76.24,0-33.31-28.74-85.09-65.79-101.93C132.55,6.78,125.63,5,119.71,5Z"/><path class="cls-2" d="M93.36,35.91,90,32.25c6.23-5.81,16.37-12.75,29.28-12.75,10.12,0,20,4.32,28.7,12.5l-3.44,3.63c-5.37-5.08-14.12-11.13-25.26-11.13S98.94,30.7,93.36,35.91Z"/><path class="cls-2" d="M93.36,56.5,90,52.85c6.23-5.82,16.37-12.76,29.28-12.76,10.12,0,20,4.32,28.7,12.5l-3.44,3.63c-5.37-5.07-14.12-11.13-25.26-11.13S98.94,51.3,93.36,56.5Z"/><path class="cls-2" d="M207.6,136.66v-5a25.54,25.54,0,0,0,25.51-25.5V30.5a25.51,25.51,0,0,0-51,0V41.22h-5V30.5a30.51,30.51,0,0,1,61,0v75.66A30.54,30.54,0,0,1,207.6,136.66Z"/><path class="cls-2" d="M30.5,136.66A30.53,30.53,0,0,1,0,106.16V30.5a30.51,30.51,0,0,1,61,0V41.22H56V30.5a25.51,25.51,0,0,0-51,0v75.66a25.53,25.53,0,0,0,25.5,25.5Z"/></svg>